<mxfile host="Electron" modified="2023-05-21T06:51:35.745Z" agent="Mozilla/5.0 (Windows NT 10.0; Win64; x64) AppleWebKit/537.36 (KHTML, like Gecko) draw.io/21.2.1 Chrome/112.0.5615.87 Electron/24.1.2 Safari/537.36" etag="mYX2iu_60FjQ1nM3vPwb" version="21.2.1" type="device">
  <diagram name="第 1 页" id="bPc9B881PRHNCZ5h8nxO">
    <mxGraphModel dx="1633" dy="1053" grid="1" gridSize="10" guides="1" tooltips="1" connect="1" arrows="1" fold="1" page="1" pageScale="1" pageWidth="827" pageHeight="1169" math="0" shadow="0">
      <root>
        <mxCell id="0" />
        <mxCell id="1" parent="0" />
        <mxCell id="Wl4oH_X68HvMIefPBBVF-1" value="" style="shape=image;aspect=fixed;image=data:image/png,iVBORw0KGgoAAAANSUhEUgAAAoAAAAHQCAYAAAAxq9tJAAAAAXNSR0IArs4c6QAAIABJREFUeF7snQdYnMe1/t8tsPQOohchoYJ6tS3LcpGL5CY3ucSx4y6XtHvzvzfJvU6/TnJTb+Je48SRFfde4h5bVu8FJAESHdF7XZb/cwYt/oBd2F0+yrLvPE+eWOx8M2d+Mx/7cmbOGQOclJlzl34DPT2XAljSAyQZAJOzuvw5CZAACZAACZAACZDA+BPoAboNQCmAnTAY3sw9sOMvjqwyDPzhKeH3UwCp4z8MWkACJEACJEACJEACJDACAkUwGH48UAj2E4Azs5f8GQbcN4JO+CgJkAAJkAAJkAAJkMBEI9CDB3MP7fym3aw+AUjxN9FmivaQAAmQAAmQAAmQgI4ENCJQCcBT277P6NgFmyIBEiABEiABEiABEphoBAyGW2Q7uFcAzllSyDN/E22GaA8JkAAJkAAJkAAJ6E6gKPfgzjQDvX+6g2WDJEACJEACJEACJDBxCRgMtxhmzlnyMoArJ66VtIwESIAESIAESIAESEBHAq+IAOT2r45E2RQJkAAJkAAJkAAJTHACRYYZc5ZYmeR5gk8TzSMBEiABEiABEiABnQioZNEz58hFHywkQAIkQAIkQAIkQAK+QoAC0FdmmuMkARIgARIgARIggVMEKAC5FEiABEiABEiABEjAxwhQAPrYhHO4JEACJEACJEACJEAByDVAAiRAAiRAAiRAAj5GgALQxyacwyUBEiABEiABEiABCkCuARIgARIgARIgARLwMQIUgD424RwuCZAACZAACZAACVAAcg2QAAmQAAmQAAmQgI8RoAD0sQnncEmABEiABEiABEiAApBrgARIgARIgARIgAR8jAAFoI9NOIdLAiRAAiRAAiRAAhSAXAMkQAIkQAIkQAIk4GMEKAB9bMI5XBIgARIgARIgARKgAOQaIAESIAESIAESIAEfI0AB6GMTzuGSAAmQAAmQAAmQAAUg1wAJkAAJkAAJkAAJ+BgBCkAfm3AOlwRIgARIgARIgAQoALkGSIAESIAESIAESMDHCFAA+tiEc7gkQAIkQAIkQAIkQAHINUACJEACJEACJEACPkZgwgpAM4BsfxNSzAaEGQ1qWhptPSi29uBQZzes4zxRZiMwO9mKlKhuhAX29NrXZkBxrQmHS8yw2sbZQBNgTemGLcaGnqBeWwytgLHaCHOxCegeZ/vYPQmQAAmQAAmQwLgRmHACcL6/CVeH+GGxvxFWkwlB/n4IMoscBFqtVrR2dsHc3Y1dnTa81NyFfZ1jq2TmpVpx9bIOLErvhNVmQnCgEUGW3vlr7QBa2mwwG7ux+4Q/Xtpuwf6iXtvHqljTu9G1ohtdmV0w2cwwBpphCDCp7nvau2Frs6LbaIVfvh/8NptgPtH7GQsJkAAJkAAJkIDvEJgwAjDKaMB3IyyYZzEjITwEwYEBMBqNDmfCZrOhpa0d5Q3N2N9hxR/qO1Br6/XCjVaJCrbhO2vaIAIwIdqMkCAzjKc8kwP7tNl60NxqRXmNVQnAP74biNoWx2PRy96ekB60X96F7nQb/GODYA4OgMGJfT22Hlhb2tFZ1QrTCSMCXveDobnXy8pCAiRAAiRAAiQw+QlMCAE4z9+En0RZEB8agsiwELeo1zU2o6KpGT+t7Rg1b6CIvh9d0YKEaBOiwv3dsq+2oRPlNd342avBo+YNFK9f23Wd8IsNhCUi2C37Oupb0FXVhsBN/vQGukWOlUmABEiABEjAewmMuwAU8ferKAumREUgKDDAI5Ktbe04WVuP79d2YL/OW8Ii/h5Y34T4GAuCAz3bzm1ps6KiugM/fCFUdxEo4q/1pnYExobDbN+LdpOitbUDbVUNCPprAEWgm+xYnQRIgARIgAS8kcC4CkDZ9n0yLhBpIxB/dugiAgtr63F7ZZtu28Gy7fv47U1IT/DzWPzZ7RMReKK8C3c+GarbdrBs+zbf146ApFCPxZ/dPhGB7aVNCHkwgNvB3vgm02YSIAESIAEScIPAuArAn0cF4LzoMLe3fZ2NT7aDP6ppxP217W4gcF71Z1e34Lx5PW5v+zprUbaDP9pvwI9ecm+b1ll7bV/rhGGRv9vbvs7ak+3gnt2dCPy7e9vcusBmIyRAAiRAAiRAAmNGYNwEoGz9/jw6EFmJcboO9mhZJe6vaRvxVrBs/YoAnJEWqKt9RwrblAAcaXSwbP22f60LwVOjdbWvpaAGAX/341awrlTZGAmQAAmQAAlMLALjJgDF+3dhXARCg08lqdOJS1NLK96vrB+xF1DE34ULgbAQP50s622msbkL7+/BiL2A4v0zLg2Af6i+ArWzqQ22He30Auo662yMBEiABEiABCYWgXERgJJ57s34IKQlxDlN9eIpJkkRU1heiUsrWj3OdWwyAq//Wx0ykoKcpnrx3L4eHC9txeW/j0S3p8mijUDjf7cgJCXWaaoXT+2TFDHNxVUI+0Uw4Kl9nnbO50iABEiABEiABMaEwLgIQNn+/UVsEKbHx47KII9VVOG/q1o93gbu3f5txYw0z6KShxvUkcJ2/OilII+3gWX7t+NGK4IyoobryqPPW4/XwvKcmdvAHtHjQyRAAiRAAiQw8QmMiwC8OMiM704JQ1JUxKgQKq2txx9ONuLtVs8ujLt4QQe+c3EXkuNGJxiipLITf3zbD2/vPXWFiJsUOpd0ofsKIwLiw9x80rXq7RWNML1qg/9Ofbe/XeudtUiABEiABEiABEabwLgIwBtC/HBfQqRu0b8DIUk08IPlddjY3OURv+tPb8d9a6y6Rf8ONEKigR9814znt3jmYew4qws9l/vpFv070D6JBja83gXLvygAPVpAfIgESIAESIAEJjgBCkAHE0QBSAE4wd9bmkcCJEACJEACIyIwLgLwkiAzvjPKW8B/PNmIt7gF7NHi4BawR9j4EAmQAAmQAAl4DYFxEYDzJQfgKAeB3F/V6vHdwAwCYRCI17zBNJQESIAESIAEPCAwLgJQbtR9Y5TTwFxW0QrPQkAAsxF4bZTTwKz7fSSsnqZZMQGN/zXKaWD+Jxge59HxYCHyERIgARIgARIggbEjMC4CUIbHRNAjuw5OEkGblgbAT+dE0F1NbehmIuixewPZEwmQAAmQAAmMA4FxE4CyDfyzUboK7kc1bR5v/9rngFfBSbpuFhIgARIgARIggclIYNwEoN0LeF50mG7pYCT9y0c1jSO+Bs4+0XId3HnzenRLByPpXz7abxjxNXB2+8QLaFjkr1s6GEn/0rO7k9fATcY3nWMiARIgARIgAQ2BcRWAUUYDnowLRFpUBIICPcuJZx9La1s7CmvrcXtlG2ptPbpMclSwDY/f3oT0BD8EB8rJRc9LS5sVJ8q7cOeToahtMXrekObJnpAeNN/XjoCkUJiDPEsqbW/O2tqB9tImhDwYAEOzQRf72AgJkAAJkAAJkMDEJDCuAlCQyFbwL6MsmDICESji72RtPX5Q2zHird+B0yRbwQ+sb0J8jMVjESjir6K6Az98IdTj69+cLR+5Fq71pnYExoZ7LAJF/LVVNSDorwG8/m1ivqe0igRIgARIgAR0JTDuAtAuAn8cZUF8aIjb28Gy7VvR1IyfjoL4s5MWEfijK1qQEG1yeztYtn3La7rxs1eDdRd/fd679G60XdcJv9hAt7eDZdu3q6oNgZv8Kf50fbXYGAmQAAmQAAlMXAITQgAKHtkO/m6EBfMsZiSEhyA4MABGo+OtUpvNhpa2dpQ3NGN/hxV/qO/QbdvX2VTJdvB31rRBxGBCtBkhQWYYjY63Sm22HjS3WlFeY1Wi74/vBuq27evMPtkObr+8C93pNvjHBsEcHACDE/t6bD2wtrSjs6oVphNGBLzux23fifuO0jISIAESIAES0J3AhBGA9pHJlvDVIX5Y7G+E1WRCkL8fgsy95+9arVa0dnbB3N2NXZ02vNTcpfuW73CERQBevawDi9I7YbWZEBxohP34XWsH0NJmg9nYjd0n/PHSdsuoef2c2Slbwl0rutGV2QWTzQxjoBmGgN6I3p72btjarOg2WuGX7we/zSZ6/YabcH5OAiRAAiRAApOQwIQTgHbGIvmy/U1IMRsQdsqT1WjrQbG1B4c6uz1O8qzXHEqy6NnJVqREdSMssDfopLHNgOJaEw6XmD1P8qyXgSbAmtINW4wNPUG9jRpaAWO1EeZiE5M868WZ7ZAACZAACZCAFxKYsALQC1nSZBIgARIgARIgARLwCgIUgF4xTTSSBEiABEiABEiABPQjQAGoH0u2RAIkQAIkQAIkQAJeQYAC0CumiUaSAAmQAAmQAAmQgH4EKAD1Y8mWSIAESIAESIAESMArCFAAesU00UgSIAESIAESIAES0I8ABaB+LNkSCZAACZAACZAACXgFAQpAr5gmGkkCJEACJEACJEAC+hGgANSPJVsiARIgARIgARIgAa8gQAHoFdNEI0mABEiABEiABEhAPwIUgPqxZEskQAIkQAIkQAIk4BUEKAC9YppoJAmQAAmQAAmQAAnoR4ACUD+WbIkESIAESIAESIAEvIIABaBXTBONJAESIAESIAESIAH9CFAA6seSLZEACZAACZAACZCAVxCgAPSKaaKRJEACJEACJEACJKAfAQpA/ViyJRIgARIgARIgARLwCgIUgF4xTTSSBEiABEiABEiABPQjQAGoH0u2RAIkQAIkQAIkQAJeQYAC0CumiUaSAAmQAAmQAAmQgH4EKAD1Y8mWSIAESIAESIAESMArCFAAesU00UgSIAESIAESIAES0I8ABaB+LNkSCZAACZAACZAACXgFAQpAr5gmGkkCJEACJEACJEAC+hGgANSPJVsiARIgARIgARIgAa8gQAHoFdNEI0mABEiABEiABEhAPwIUgPqxZEskQAIkQAIkQAIk4BUEKAC9YppoJAmQAAmQAAmQAAnoR4ACUD+WbIkESIAESIAESIAEvIIABaBXTBONJAESIAESIAESIAH9CFAA6seSLZEACZAACZAACZCAVxCgAPSKaaKRJEACJEACJEACJKAfAQpA/ViyJRIgARIgARIgARLwCgIUgF4xTTSSBEiABEiABEiABPQjQAGoH0u2RAIkQAIkQAIkQAJeQYAC0CumiUaSAAmQAAmQAAmQgH4EKAD1Y8mWSIAESIAESIAESMArCFAAesU00UgSIAESIAESIAES0I8ABaB+LNkSCZAACZAACZAACXgFAQpAr5gmGkkCJEACJEACJEAC+hGgANSPJVsiARIgARIgARIgAa8gQAHoFdNEI0mABEiABEiABEhAPwIUgPqxZEskQAIkQAIkQAIk4BUEKAC9YppoJAmQAAmQAAmQAAnoR4ACUD+WbIkESIAESIAESIAEvIIABaBXTBONJAESIAESIAESIAH9CFAA6seSLZEACZAACZAACZCAVxCgAPSKaaKRJEACJEACJEACJKAfAQpA/ViyJRIgARIgARIgARLwCgIUgF4xTTSSBEiABEiABEiABPQjQAGoH0u2RAIkQAIkQAIkQAJeQYAC0CumiUaSAAmQAAmQAAmQgH4EKAD1Y8mWSIAESIAESIAESMArCFAAesU00UgSIAESIAESIAES0I8ABaB+LNkSCZAACZAACZAACXgFAQpAr5gmGkkCJEACJEACJEAC+hGgANSPJVsiARIgARIgARIgAa8gQAHoFdNEI0mABEiABDwhYDKZcMaKlViwcAkiIiPg729Rzezdswsvv7jJkyb5DAlMCgIUgJNiGif/IFLCUmHr6UFpU/HkHyxHSAIkgNPPWImL1l6Crq4uvPSPjcjNPew2FYPBgK/ffBumZ80Y9CwFoNs4+cAkI+CzAlB+MVgsAQiLiERMTBwCA4NgMBrV9JaVFKGstGiSTbV3DiclLA0bFn0b8cGJePbA4/hX0cfeORBaTQIeEsgICcGv5i9AuJ8fGrq68O97dqOktXXI1mItFvxu4SLEBQSg2WrF/fv3I6exwUMLxv6x0LAw3Hr7BsTExOLwoQPYtPFv6OnpcduQGTNm4ZrrvgaLxQKbzYaC/DwUnjiO4uIiVFZWoKmx0e02+QAJTBYCPikAwyMikTl9FoynBN/AyaQAnDjL+6zUc/GNeXcpg/6y/zEKwIkzNbRkjAj4GY14YN58zI2IQHdPD36bm4NPTp4csvczYmLxg9mzIc/mNjbiB/v2oq27e4wsHnk3F1x0Mc5cuQodHe14/u9/Q0H+MY8aPWvVOTj/wrXq2ZzDB7HxuWc9aocPkcBkJOCTAjAyKgaZ02f2m0/561K8glIoACfOUqcAnDhzQUvGj8CN6Rm4MT1dGfBBRQV+l5szpDEbpk3HuuRkVee1khI8mueZgBqPEYvX7+Zb7kBEZCTy847i2Wee9Mj7J7Zfdc11WLBwcS+399/Bvz77ZDyGxD5JYEIS8EkBGB4RhaTkVDQ21qO+rhZtrS2YEp+ExORUCsAJtkwpACfYhNCccSGwOCoK92fPQYDJhILmZvznvr1o6upyaIvWY9hls+GXhw/jy+qqcbHbk05XX7AG4rnr7u7GG6+9jD27d3rSjHqGAtBjdHzQBwj4pAB0NK+JSakUgBNwwVMATsBJoUljTiDC3x//u2AhUoOC0NjVhe/v26uEoKOSFBSE3y5YiEh/f1S2t6szg1UdHWNusycdBgUF4bY77kHclCmoq6vF008+ivq6Ok+aogD0mBof9BUCFICnZnq8BGBCSBLWZF6GObHzEW6JUNvQ3T3dqGurwa6K7Xgn73U0dQ59UHlqxDRcnnUNpkVlIdAcpEbUYW1HQX0e3jj2Mo7W5KAHjg9QZ8fOw31LvgeLyaLO2H1e9Anmxi3AZVlXIy08AyaDCV22Lhyq2o8Xc/6O8ubSYd+NUP8wrJ12ORbHL0NkYLRqQ0qbtRUVzeXYUvIvbCn9HC1dLYPa+rflP1Qs3CkfHH8Hzx/S/2zP9JQw/OKuhYiJCEB9cyd+8sReHMh3/mWkrd/Q3IlfPLMfu4/UID0hBA/cvQhTogLx6mdFMBkNOH9ZIgItJkg9+dnG9wtw3zWzsHppAoICzGjr6MYH28vw4Is56La5f/jdHX4Tpa5d7Hd0d+DBnb9FTvUhrEg+CxdlXqqCgOTdaLO2YU/FDvzj8N+GfS9kXJEBUer5pQmn971fsp5LGovwfsFb2Fm+Dbaer87GSdDR/zvtfoT4h2JH+VY8susPLuOR9/c/z/gJ4oMT1Lv3m60/V++hXuXfZ87C+fHxajv0T0eP4t3yModNnzNlCr43cxZMBgM+r6rE/xw61K+e1ps41PbwRQkJ+M6M3qMyfzySi/fKy50OJcRsxsWJSViTmIgYiwVmgwHWnh6Ut7XhzdJSvFdehk6bbVgUs2Zn4+r1N8Df31+XM3v0AA6LnBV8mAAF4DgJwABzIG6aezuWJ67oO3voaB2KaPrzjt8gt2ZwCgSjwYRrZ9+I1elrnLYhXxYitp7d/7gScgOLVgC+cfQlWMwBuCDjYoft1bXX4PfbfjlkKhYRb3ct+jaC/YKHfK0OVu3D77c9MKEFoBj3q3sXY+msGNhsPdj4zwI881ae03FduzoDt146DWaTUQm///fn3q0rrQCsb+pEaLCfEoH20t7ZjZ051Th9bly/n4vw2/TBcTz9pvec3xrJ71K7ABRB9sz+x7FwyhL1P/vZXG3bRQ0n8PvtD6Cxw3FkqwEG9YfV5TOugZ/Rz6lZR2oO45Hdf+xrJ9gvBP9x+o8gQlD6+PWWn6o/XFwpmZFZ+O6y7yPILxibiz/FU/seceUxl+sMJ+zsDQ0nFPUWgKvi4vDNrBkQEeislLa24scHDwwbvXzJpeuw/PQVKmL3vXfexJYvv3CZj6OKFIAjwseHJzkBCsBxEIDyhXT34u9gwZQlqnfx+OVUH8S+k7tR3VaJuKB4zIzORnbsXOW3E2+IeOAGlnVZ1+DS6VepL0gRd3tP7oIIK/G4zYqZgwVTFqsvPxGBH554F5sO/XWQJ1ArAOULLz4kEfXttdhc8hkqmsuQGJqMVamrEREQqbrfVb4ND+/6g0OPYkxQLP7jtB9D/l/6LGw8ju1lX6Ky5SRC/EMQHRiLpYmnY0pQPA5V73coAMMs4QgwBfQNdUnCabh61g3q3y/lbMTO8q2DOIgnsaXL8XbYSN/fK89Ow53rsuBnNuJgQT2+/fttTpu0i0Vrdw+efSdPefUGCkDJZHHoeL0SfGfMjYN4DU/FHqGqvh0f7yxXnsIV8+JUn8eKG3Hvb7b6hBdQu92fX3cUGRHTUNR4AltKPkdjZwPSwjJwdtpqyB9PUt7KexWv5DpO5HvFjPVYO22dxoO9Dwcq96Ghox5JoclYkbwKccHxqp29J3fikV1/7PsD6e7F38XShNOUh/GXX/5YvQeulBUpZ+PWeRtU1b8eeAKfFX3kymMu19Fu7Yqg+t7ePajr7Oz3fKDJhF/OX4CZYWFOt4r1FIDnTYnHN7Oy1NlEeecPNjTgy+pqlLW1IiUoGCIOp4WEqN9R+c3N+K/9+1A/wGb7APz8/HD7nfcgMSkZ7e3t2PjcX3C8IN9lPkMJQLHtn++9jS8+/2xE7fFhEphMBCgAT83mWG4BX5R5Ga6ZeYP6pShetT/t+A0KG44PWlciuiQFimxxDhSAkhj5e6fdD9lulW2xJ/b8WQlAbZGt3A2LvoNAc6Dabv3Tjl/jWO2RfnW0AlA+EBH62J4/od3a1lcvOTQVsjUr9sgX6K+//AkqWgZvB61KPQ83zb1Djevz4k/wl32PORSKYnt27Hy8l//msO/SeJ8B7Oe9G2IbWLv9W9PQgR89vge5hb3eKW0b2s/mZkbiJ3csQESIP7qsNjz+2lG88mmh8gL+8bvLMDsjApV17fjhI7txvKxpWFauVjD6W+AfHQ2Dxgvp6rNSr7OuDt3D5KFzpz17Xe1cyxf2R4Xvqz9atFu08+IWQgSaHFkobizE/2752SDxPz1qBr619D+VF9rZ+6X9I0z+AHtq78PYWtrrbZIt4/WzboTV1oVHd/8Juyu2uzQceUaebe1qwR+2/woiYvUsEtzx87nzsCAy0mluv6mncgaG+fk5Tf+ilwCcEhCgziXK/7darfjfnBxsranuN2Txc985bRrWJfVGJG8sLMTfTgz+XSefxcbF4Zbb7kJoaBhqa6rx1JOPorFhZLkLJZp42vQslUz6tVdexP59e/ScErZFAl5NgAJwjAWgeLj+8/QfQ87+yVknOWO0v9L5LyXZyjIYjP2+BMVkOfN3edbVyvqhxNb12Tfj/IzePFiOzsppBaAIyT9u/xWO1eYOWtS3zb8b4uEY6kvR3pe7X5xDvUHjLQDFtp/ftVB564baBtZu/+7Iqcb3H/pKjGsFYF5JI+761RY15LBgPyX00uJD0NTahZ89tU9tHUv5ye0LsHLBFLS0WfGzp/diZ07vz/UoEQsWIfmaa2H0c741OlQ/Fe++jcpP9PVuSX/aua5pq1bbr9Wtlf1MMRv98L3T/gtZUbPQ3NmkztmJELQXeV/uWfxdLE5Yjs7uTvWHkZyldVRiguLUuxgdGIMDlXvV2pezsuJ9/9bS/6c8ja8ffQmvH31xWOzSr/yRJO+T/HEkfyTJH0t6l6tTUnF7ZqZq9sn8fLxU3D9h/ZqERHwrK0v9EbapsBB/Od7rhdYWvQTgNzKm4rq0NOX5e6qgYJAt9j7FK/nrBQuQFRo2ZASzNmlzcXEhnnj0IY/Tv0jfkkZGkklHRkbp5lHUez7ZHgmMJwEKwFP0x8oDuCh+GTYs+hbki+xw9UH1pSOCyZ2i/RIcTmxpBZ6jg+nDfW6369z0C3DjnNvUP50lZLZ7QKTOCznPueThG27cE0EAXrwiGfdePRMWP5PTbeCvtn9tePrNPPzjw6+8HFoBeKSoEff8b68AlPLY90/HtOQwnKxtU56+E+W9W9kbrpiBa85LR2u7Fb/beAif7q4YDpXLn3uDABwqAOPGObfi3PQL1R9QA49HRAVG4wdn/FQdN3DmIbSD0oq2mrYqtd1b21YDbRviEf+/Hb/uY2v/w2tg39oAkIHPuDwxLlScFRaOn8+bp87b7aitwY/27+8X3vVf2dlYGRuH9u5u/PzQQeyqrR3Uqh4CULvVLNvQsh0t29LOyr3Ts3BpUtKQt5LMX7AI6668BmazGSeOF+CpJzw7QyniNzUtHeetvhDpGVOVGC4pLlIRxeIJZCEBEuglQAE4xgJQ67lz1bswcLFKhKJ4LpJCU9Th9Qc234/KVsc3A2i/zOrb6/DAlz/q51XRCsChvnRdEWLzpyzC3Yu+C3+Tv9pCfjf/DXUOytlBfVdeQlf6daWdkdSJjw7E/963BEmxQQ6jgbXbv9X17fjvx/aos3v2ohWAXx6oxP2PfeXxHU4AareGRzIGb3hWO9dDvRt2T7MjATg3dgHuXfJv8DdZlFfv7wefHnLoEu1+RvJZ/byJWmEod0+LJ1K8jdo/vKRR7R852gAQT99rV+Yo1M8Pv56/ALLVOzDFi/YzZ2cEpQ89BGByUJC6ak6up5N0NL/JzVGi01k5O24Kbs7IwFB5CbW3drh7T6/26jitDeKdrCgvw6svv4ByJ1HTrnBnHRKYjAQoAMdYAGq3ZD292iwuaAp+uOLnkO1k7ReUowWqjWp0JBa1AnCodCquCDH5grxr4TchXk5t5KZEUZY0FuNw9QEVRCI2O0tLM3AMrvQ7Fi/m/bfOx9mL4h1uAw+1/Su2UQC6NkOuzvVQAlDbhmu99tYaKCbt3mztNrOkd5E0L+Ltk6LdNrYHgHTZOvHQzt/jQNVed7p3q+63Z8yAbPUO9PJpvYOO0r/YO9FDAGrbcMv4IVLKjIYAlGCSrV9+gU8/+VAllmYhARL4igAF4BgLQG2eOz0E4HDbXGMpAAWlpKaR7eK1mZf3RQ4P/Is8r+4Intz7MKqceC219V0VBaP9Ug+1DWzf/nXmraMAdG12XJ3rsRCA9qMaRoNRrVUJELH/rLinXbL7AAAgAElEQVSxSP3xBfT0bRvbt6UdedldG73rtbT3/D534gSeOxVUYT8fKPcF/+FILj6scHxsYDIKQPmDU66QCwuPQEpKKsIjIjA7ey4ksbR4Afft3Y1XXvrHiM4Uuj5DrEkC3kGAAnCMBeBk9gAOXPIiPmfHzIFEbkrUrz2VjNSTCMnfbXugX7Sxo1fGVVEw2q+bpGb5zTcHbwNrt38HnuOz2zTRBKA3RAEP9ceRqwJwJAnCJR2SnCWUKHuJVpftXnu/L+T8HbOiszErJltFCUsQlz0w5WhtDn679X/cPtfrzvqNtVjU9mtcQAAO1Nfjh/v3qa3Vn86dh+XR0So1zFBn8vQWgHLOUNK7jLTodQbQbkdaegau/9rNCA4ORmtrK/76zBMoLS0ZqZl8ngQmDQEKwDEWgON5BlB70N2+gvXcAh7qrZBzVXPjFuLW+RuU92S44BV7WxNFAIo9P7x5Hs5bmtBvG1i7/TvwfN9EFYDeEATiqQDUngEcSTJmSYguN4LILTuSgumhXb/H9077b3XLh6R4yYycjmtnfV3l15QbReyBJx+feB/PDXPucKTfHpJa5Wfz5mFpVDRqOjrUVW8dNpu6/k1yBWpFoaO+9BCA2jOAw/Xn6nj1jgIWr+Btd9wNEYJMA+PqLLCeLxGgABxjAahHFLD2kPpwQmq4KN+xEoD2l8qeY03+7Uqk8EQSgBedloRvrZ8Fi/9X0cD27d+Orm489FIu3t482MMw0TyAk1kASmqXH57xM+VtHu54xHC/6O2pjyStiwST3LXwW6hrr1W5ByW4SgSiBF+9cfRlFdlvMQXg6f2PqltARrvYt3vtQRUdtm7cnz1HJWTWbgs7skN7VnBbTQ1+fGBwknl5zh65K/898Cq4YLNZ5QDMDAkZ1uPoKovRyANovwlEr5tFXB0L65GANxCgABxjAehuHkBni2g08gCONAjElQWvTSfjrgB0pb4rNnhaR5u3T+4GfvilXHVLiNwVXFrViv94cCcqar5KoD1RPYCejn+0n3NV7A+1BazNAygJnp878JTHN3LYE5tLENPW0s04J+185fGTe6ftHkIJyJKrFiXXpqO8hKPFTJvwWe7zbbZacWN6ukrIfP+B/Tg0RALl+IAAtYUcbbE4zcsX4e+vBF5qUO/d4o7uAtbmAXylpARP5Du/JtEVDqN5E4j0/8H77+Bfn33iiimsQwI+QYACcIwFoHSnvQlEDo3L9pKjWwMkEe1l06/E/sq9yK3pf6H7aNwEMlIBeHba+eoWhJ3l2wYlrpZxi/j9t2U/RGp4ukrS+8juP6ibR4Yq2i09uQ/5D9secHin8Vi9rf92fTYkIESSQu86UoOFWVHq7l/J0/fzpx2fg5poHsCxYuVuP3oIQOlTexOI3IDz5N4Hna4zuS1EcgpKsIekb9EWe2qXQHMQGjvrIWdatTeDiBCVe7jls3BL5LAR+e7yGKq+Ng/fkcZGWHt6kB0ePmSiZXt72mfluf87kosPNAEj2ts77NH8jgSg9iaQTpsNT+Xn443Skn55Ce19+huNOD8+QXkM/3S0/21E2nHyLmA9VwnbIoGhCfikADSZzZDEz5JwtO+XYlAwgoKC1T9bW1vQ1trS95nVakVZaRG6rVZd1pOzu4AlrYTceSpfONMiszB/ymKYjWa37gLeW7ETNthUxKK7dwGPVADaPTOd3R3qyjk5EG+/RzUtPANnppxzKnoScFXMaT2mEs2XX38M20o3K8EsYlPKaN4FPHDCJRXMv9+QjaAAsxKBRqMBQ23/yvMUgK69NnoJQOlNotCvmHmtugtY1s2JhgLsKN/S715qyVspuTSljqO1r03uLG0OPEOrPc4hnw+VR9M1Au7V2jBtOtYlJ0OifuV/IrJEyP0uN2fYhq5MTsEdmZkqXZOIt2011ThQ36DakPt7RaiVtrUhOTBQ1XEkAKUTiUj+j1mz+u4Clmc+OnkS5W1tkJsGpwQEYlFkJGaEham2hwsYmTU7G1evvwH+/v7IOXwQG597dtixDFXBvgUsdegBHBFKPjwJCfikAJRfLjOz58Pf3+LSlHZ2diD30D50OrnE3KVGBlQS795Nc2/H8sQV/XLmDWxLtp/+vOM3SjANLCIkr8u+CWennu+0Dfny21a2Gc/se9Sh50zPM4DaCOehmBQ1nFBeT1fSwEg74qGRtuWL2lEZSbSnu3Mn28C/+9ZSTE0K7Xt0qO1fCkDXCespAGUreHXGGlwxY7260m2oIu/Iu/mv46Xc5/tVkza+s+z7kDu1pWjz/sm/tUnW5d9jfURBmw5G+hcR+NvcHHxy0nFSeO3gJGn0L+bOU8LMUdlaXY13y8vwg9nZStw5E4Dy7MrYWIgYlS3l4cqW6mr89OABp9UCA4Nw2x0bMCU+AfX1dXjmycdQW+v5NYgUgMPNCD/3ZQIUgC7M/mgIQHu3cifwmszLMCd2vkowK39ty9mlurYadYfpPwveVgfPhyoSqShnAqdFZSnvoZQOazvk6rc3jr2MozU5ThMv6ykARZDOipmL05POREbkNEQGREF+ZrenrLkUnxZ+gM0l/3K4RTzUGMUjesWMa5EeMbVvjPb6YykApc/vXDcbl6xIgUH2ygB8tKMcDzzr+CC9fE4PoAsv2YC7gD2NAh7Yk6RxWTvtciyOX4bIwOi+PyLkD6uqlkrsqtiGLaVfDLpz2N6O9qztQIGnFYiObiVxbdSe14r09++L/JVW5GaQ/9i7BxXt7S41KlvBcpfvRQmJ6kYPEcKVHR14paQYb5WWqrt77dfODSUApTNpa21iIi5MSIScMRRvn5S27m5UdXRgR00NPqgoR2FLi8MtYq3Bqy9YA0kKLYEbb73xKnbu2ObSeBxVogD0GB0f9AECPikAfWBeOUQSIAES8EoCEZGRuPX2DYiMjEJ+3lE8+8yTHidwPufc83Hu6gsUh0MH92PTxr95JRMaTQKjQYACcDSosk0SIAESIAGPCVxw0cU4c+UqdezmpX9sRG7u4CMwrjSuzS0oV8EdL8hHcVEhamqqUVCQh6bGr+7sdqU91iGByUSAAnAyzSbHQgIkQAKTgEBoWJjyAsr1bseOHsHfnn3KIy+gpJa58aZbMTVz2iAqe/fswssvbpoEtDgEEvCMAAWgZ9z4FAmQAAmQwCgSWLLsNFx8yeUQz91IvIAmkwlnrFiJBQuXICIyoi/4jwJwFCePTXsFAQpAr5gmGkkCJEACJEACJEAC+hGgANSPJVsiARIgARIgARIgAa8gQAHoFdNEI0mABEiABEiABEhAPwIUgPqxZEskQAIkQAIkQAIk4BUEKAC9YppoJAmQAAmQAAmQAAnoR4ACUD+WbIkESIAESIAESIAEvIIABaBXTBONJAESIAESIAESIAH9CFAA6seSLZEACZAACZAACZCAVxCgAPSKaaKRJEACJEACJEACJKAfAQpA/ViyJRIgARIgARIgARLwCgIUgF4xTTSSBEiABEiABEiABPQjQAGoH0u2RAIkQAIkQAIkQAJeQYAC0CumiUaSAAmQAAmQAAmQgH4EKAD1Y8mWSIAESIAESIAESMArCFAAesU00UgSIAESIAESIAES0I8ABaB+LNkSCZAACZAACZAACXgFAQpAr5gmGkkCJEACJEACJEAC+hGgANSPJVsiARIgARIgARIgAa8gQAHoFdNEI0mABEiABEiABEhAPwIUgPqxZEskQAIkQAIkQAIk4BUEKAC9YppoJAmQAAmQAAmQAAnoR4ACUD+WbIkESIAESIAESIAEvIIABaBXTBONJAESIAESIAESIAH9CFAA6sfSp1sKTErC1Ds2wBQUPIhDd2sLCp54FG2lpT7NiIN3n0BQqD+ylsSjYF8lGmvb3W+AT5AACZAACTgk4JMC0Gz2Q1R0DCKjYxAYGAT5txSbzYa2tlZUnSxHXW01uru7uWxcJOBLAjA6IQSX37cQYVEBSpS8/uAe1JQ3u0jqq2pJ0yJxyV3zEBjij4NflOLDvx9WH6bMjMIld8yDJcgPez8pwqcvHHG7bW9/ICDYD+fdMAtT58WipbHTY8Z2DpfdvUC11W214YtXj2HPx0Xejoj2kwAJkMCICPicAExJzUBcfCIMBsOQ4KxdXSjIP4rGhroRAfaVhw0mEyyxcTCYjH1DTr5qPQKTUzDZPIB6CcCF56bizCumK16bX8vD7o8K1X8vuygDp12SCVu3DZ9sysWhLWW+soz6xqkXYwpAn1s6HDAJkICLBHxOAE6dNlN5/6R0dLSjvrYGLS1N6OzsRFBQMGLj4hF4ahvTarUi7+hhNDc1uoiT1bQEMu/5JoLTMygAnSyL1V+bjTlnJqGtuRNvPbYfpXm9f2xcdMsczFyWgJaGDrz56D5UnGjwuYVFAehzU84BkwAJjDEBHxSAM2AJCETh8Ty0tgzethPPYFJKOuITktRUiAcw72iO2h5mcY8ABeDQvNZ/bykSMyNQW96CF363A+0tXTAaDbj+B8sRmxyKyqJGbPr1dthsPe6BnwS1KQAnwSRyCCRAAhOagM8JQIslQHn+hip+fv6YMXsuAgIC0d1txdHcQ2hpbprQEzkRjaMAdD4rMUkhuPyehQiNCkDB/iq88cheVTk+PRyXbpiP4HALcreX471nDk7EqR11mygARx0xOyABEvBxAj4nAF2d78zpMxEZ1btVnH8sVwWFTPYi5/giFy1BzJkr4R8TC6OfH9DTg+62VjTn56HivXfQUVXlMga9BOCMGbNw2RVXITQ0DFVVlXjpHxtRXj5+5+L0ECdZi6dg9Y2z4edvwo73j+PLN/IV1/mrUrDyqizlCdz6Vj62v3fcIe+0WdFYK4Eigea+AJKwmECcuW460mZHwxJgBgyAtcuGptp2FUyy77Nih23Jc8vXZCBjbiwk+EL67unpQVtzF0qO1GLr2wWorWgZdt5H0o79PKTJ/NUZ0uE67Giz4p0n9qMwp2a4qmAQyLCIWIEESMDHCFAAOplw7VlBXxCAgYlJSL3h67DExTl9BWxdXTj5wfuo+vRjl14TPQSgRGnfdscGTIlP6Osz79hRPPvMEy7ZMBqV3BWAIqjip4bDz8/UZ87U+bGYtzJZRaWKwKoq7vUwZy2ZguwzktDZblWBIfWVrernzfUd/SKNtQJQPIiHt5bh3OtnQdKmOCpaL6P28xlL47HqmhlOn5O6sjW95c18pwJS6oy0HQrA0VipbJMESIAEnBOgAHTAxmQyYfqMbISEhqmzf8eOHEJT4+Q9iC8pXNJuugX+kVGKRldjIxoPHURbWQnMQcEIzpyGkMxpEA+hrbMTpa+8iLrdu4Z9r/QQgAmJSfjGrXciKCior7/q6io8/eSjaGocn+AcdwWgtv6w0JxUGCjgtAKwKLcWoZEWRMYFo6WxA0U5tag72QJLsB8S0sMxJT0MhYdr+raZ7V2kZEVhze1z+8SfpFspOlyj2ggOsyB1djSCw3oFpYhASVOTt6dykIV6tCPCNTopBMZT0fkBIX5YecV0hEQGoLmuHZ+/egztzV39+rZ196CisAFdHcOna6IH0NOVx+dIgAQmKwEKQAczK8Iva2Y2jEYT2tvakJuzH5IWZlIWgwEZt96B0Bkz1XZv/d7dKH5hE3oG5ECMXLQYSVdeA6O/P9rLy5D/2CMquneooocAnIgeQHfXwWgLQBFCsmWbu6MCHz13eFDQSEJGOFJmRmP7uwX9TL/im4vUdrGUk4WNePvJ/WisbuurI6Ls8nsXYkpamPpZWV49XvrDzkHt69WO1jh3Rba7c8L6JEACJODrBCgAB6wAiQKW838Rkb1fjMWFBThZMX7nzUZ7gYZlz0Hq9TcqYddWUoz8Rx+GrbPDYbciAKNPOx2yFVzy4j+UWBxtASjtT7QzgCOdk4w5MVhz21z4W8wq99+/Xj6qmnR2LtBRf1oPoHxelFOD1x7c43LEsDYJtWw3f7QxB0d2VAzqSpInX3BTtjobKGfu3nv6AI4f/Oo8rF7tDOyYAnCkq4zPkwAJkMDQBCgAB/BJSEpBUnKa+mlTUwPyjuSoSODJWpLWXYnoM85U3r+K999F5ccfOh1qxMLFSLnmWhjMZtR8+QVKX3tlTATgZGN/xmWZWHphBro6u/Hhc4dxdNdJNcSzrsrCovPS0NE+WGgNZKAVgBLo8ekLuSoYxNViTzZtNBn6paEZ+LycX7zuP5chLjUMPbaefgErUlevdigAXZ051iMBEiABfQhQAGo4hoZFYPqMWWrrt6O9HUdzDw6bMkafaRinVgwGTLv3WwhKTYOtqxPlb72B1qLe2ygcFUtMLJKuWg9TQAAaDx3AiWefoQD0YOqu+vZidd2bBHi88n+7+u64dZQX0FnzWgEoUb6vP7wH1aWuX0d39voZWHBOqmreWYCIvW97Ymr5t5wBfOvxfX1m6dUOBaAHC4mPkAAJkMAICFAAnoIXHBKK6VmzYfbzg6/cAOIXFoapd90LS2ys20uo5cRx5D/8ZwpAN8lFTgnCuvsWITwmEMW5tXj5/3qDabR5AQeKLEddaAVgZXETNj6w1S1L7EER8tBw9w1LWprFq3u94gPFol7tUAC6NX2sTAIkQAIjJkABCECSQ2fNnANLQAB6bDYcLziG2hrX892NeBbGqQEKwNEHL2fZQiIsfR1JpOvpl2TC7G/Egc9Lkb+3N6pWInWXrZkK2ZLd92kxTpw6Z9fV1Y2KgoZBZ/v0FIC7PizE56fOIToi4qoAHEk7FICjvxbZAwmQAAloCfi8ABTxN33GbAQEBinxd+J4HmqqB6e6mIzLRisAJaK34IlH0Vbq+jmy4ZjoEQU8XB8T/XOth8wTWxtle/fBPf1yAEo7egpAegA9mRk+QwIkQALeTcCnBaDJZMa0GbMQGhqu0miUlRShvMzxbQnePc1OrNecAexub0fhs0+rGz/0KhSA6LuBwlOmoyUAPT27N/B6Or3aoQfQ0xXC50iABEjAMwI+KwBF/GVmzURYWIRvir9T6yX5mmsRtXS5S1HA7i4xvQTgZEkDo01tIqlUXn9oj0Lqyf2/I/UASrTxinXTIFev1Za34IXf7VDJngeW4aKA9WqHAtDdt4v1SYAESGBkBHxSABqNRqRlTEN0TJxPiz9ZOto8gB2VJ1Hw+CPqJhA9SuaGexE8NVNFGBdveh4NB76KHnW1/cmQCNo+Vmd5/rJPT8Q5182EwWhQ179JbsDhykgFoF75+/RqZygB2NLQgTcf3YeKE+N7G4/cRb3+uq8hNS1d3RC0e+d2vPXma+p3CAsJkAAJeBsBnxOAkug5fep0ij/7Sh1wE4hsARc+91fHt3wYDAibOQsxZ56FsrfeUDeCDFUS1l6C2LPPVVXq9+xC0aaNytPoTpmIV8G5Y7+2rrM8f6u/NhtzzkxCW3Mn3npsP0rz6obtYqQCUDrQ6wYPvdrRDlo8j9f/YDlik0PVfcnb3inA9nePD8tlNCtccOFarFx1Tl8XnZ2deOmFjcg5fGg0u2XbJEACJDAqBHxOACYkpiAppTelReXJclSUlQAYWpR0d3dD/jdZi6SBybjtTvhH9d5+IucBm3JzlMCztrbAPyIKgSnJCEpJgykwUIlDVwJGgtLSkX7zrTCHhKgAm6acw8oL2H6y98YJuVGko6pqSFE4mTyAzvL/Xf/95eq6taqSJjz/y20u3eahhwB0dodvTXkzIuODkZ4dM6K7gN1tZ+D7de71szBvZTJgACTZtURGV5U2qahotX7cuAtYj3f3kkvXYfnpK/o1tW3LZuUFZCEBEiABbyPgUwLQZDJh+oxsyF2/7hQJDikrLXLnEa+rG5iYhORrrkNgYiJgMAxpv7W5CQWPP4r2ivJhxznl/AsRd975MBiNg+qK+Ct47KFht5wnwxlA7fk/bS49T87/CUg9BKC0I9vPZ16ZhcAQP6dzKVfAffl6HvZ95jxASq92tEbI7SMX3zFP5Ux0VMSud57Yj8KcmmHXoR4VIiIj1RZwcnIqZCdByt49u/Dyi5v0aJ5tkAAJkMCYEqAAdAG3LwhAhcFgQOSixepquIC4KTBaevPXifeuu7UVbWUlqN+zBw0H9ju9L9gRzrBZsxG/5mJY4qb0E4KuCkAXpmjCV7Gf8zOajNj6Vj62v9e7nbnw3FScecV09d+unv/TUwBKW2ExgVi+JgMZc2PVnb+y/Srn2tqau1BypBZb3y5AbUXLsIz1akfbkbS54vJpSJkR1Web/fOxFoBau+646151FpACcNhlwQokQAITlIBPCcAJOgc0iwRIwIsIREVF45bb70JYWDjee+dNbPnyCy+ynqaSAAmQQC8BCkCuBBIgARJwg8AFF12MM1euQktzM5595glUuHAUwo3mWZUESIAExoQABeCYYGYnJEACk4HAosVLcfGl6+Dn54cvPv8M/3zv7ckwLI6BBEjABwlQAPrgpHPIJEAC7hEIj4jARWsuxezsOSoAZP++PXj15RcmdXYA9wixNgmQgLcRoAD0thmjvSRAAmNOID1jKm648RsqQEbO/H384T+ZAHrMZ4EdkgAJ6EmAAlBPmmyLBEhgUhIQr9/UzGkoLipCZ2fHpBwjB0UCJOBbBCgAfWu+OVoSIAESIAESIAESYBQw1wAJkAAJkAAJkAAJ+BoBegB9bcY5XhIgARIgARIgAZ8nQAHo80uAAEiABEiABEiABHyNAAWgr804x0sCJEACJEACJODzBCgAfX4JEAAJkAAJkAAJkICvEaAA9LUZ53hJgARIgARIgAR8ngAFoM8vAQIgARIgARIgARLwNQIUgL424xwvCZAACZAACZCAzxOgAPT5JUAAJEACJEACJEACvkaAAtDXZpzjJQESIAESIAES8HkCFIA+vwQIgARIgARIgARIwNcIUAD62oxzvCRAAiRAAiRAAj5PgALQ55cAAZAACZAACZAACfgaAQpAX5txjpcESIAESIAESMDnCVAA+vwSIAASIAESIAESIAFfI0AB6GszzvGSAAmQAAmQAAn4PAEKQJ9fAgRAAiRAAiRAAiTgawQoAH1txjleEiABEiABEiABnydAAejzS4AASIAESIAESIAEfI0ABaCvzTjHOykJGAwGzF+wCMtPX4HY2Fj4+1sgPysqPIEnHntoUo6ZgyIBEiABEvCcAAWg5+x86smIBYuQfM21MPr5oeXEceQ//OcxHX/w1EzAZlN9swwmcMllV2DZ8tOV6NMWCkCuFhIgARIgAUcEfE4AyhdkYGAQwiOjEBYegYCAIPj5+Sk2PT096OzsQH1tDSpPlqOjo52r5hSB8RKAIZnTlPD0j4xCxXvvoPKTjzgnAwjExsXhltvuQmhomFrDpSXFyM87htLSYlSUl6OurpbMSIAESIAESKAfAZ8TgMEhociamQ2TyTzkUpAvUhGBJUXH1Zeqr5fxEoBx55yH+DUXK/wV775NAehgIc6bvxDrrrxG/SFTVlqCJx9/GF1dXb6+ZDl+EiABEiCBIQj4rAAUJk2NjWhsqIPV2oWOjg5YLAEIj4hEZFQMjEajwlZaUojy0mKfX0QUgBN3CZy16hycf+FaZeDePbvw8oubJq6xtIwESIAESGBCEPA5AWg2m2E2+6G9vc3pBISEhmFa1mxIXavViqM5B9Da2jIhJmy8jKAAHC/yw/dLATg8I9YgARIgARLoT8DnBKCrCyAtYxpi4+JV9RMFx1BdddLVRydlPQrAiTutFIATd25oGQmQAAlMVAIUgE5mJjEpFYnJqerTspIilJUWTdQ51M2usFmzEX/RWljipsBgMqGnuxuthSdQ/s5b8I+KHj4K2GBAcHoGopYsQ3DmNJhDQ1XUsBRpq6u+DrXbt6F68xewdXY4tDvznm+qNtwpdbt3onjTxsGP6GCPIzsSEhJx9bU3IDY2Dk1NjXjj1Zdx5EiOOybrWpcCUFecbIwESIAEfIIABaCTaU7PmIaYUx7AgrwjqK2pmrwLwmBAytXXInLJUmBAGhEZdHdrK+r27ELUstOGTAMj0bpRS5cPy6mzrg7Fm/6OluMFg+rqKQD1sMfRYG6+5Q5Mm57V99HJinI89cSjaGtrHXbso1GBAnA0qLJNEiABEpjcBCgAHcxvaGg4MrNmqTOAHe3tOJp7cFKnhJly/oWIO+98GIxG5alrzs9DU85hGMxmhM+Zi6DUNNisVuUVlDrO8gCmXHcDIhctQXd7O9orytF64ji6mhoBWw/8wsMROnMWAqbEK5HZ1diI408+puppi39UFEyBgX0/kq3n2FXnqH9XffYJ6vfuHjRj1qYm1d7Aooc9A9sMDQvDrbdvQExMbN9Hra2t+MvTj6O8rHRcfltoBeDuXTvw6ssvjIsd7JQESIAESMB7CPi0AJScgBIQIk4vf0sAAgICEREZrSKB5TNrVxcK8o+qSOHJWgLiE5Bx+13wCwuDrasLZa+/orZp+4rBgPgLLkLsOecp8SfFmQAU75+1uQmNuTmSVHEwMvE0rr8ekYsWKxFY8+UXKH3tlSHRjiQNzGjYI8ZONA/gJZeuUzeASPng/Xfwr88+mazLleMiARIgARLQiYBPC0B/f3/MzJ6vrs3SFon8ra6qQEVZqUoRM5lL7FmrEL/2UiXumo8dRcGTjw0Sb6agYGTefW+v924IAegKp4CEREy9/S51PrC1qBB5D/3JsVg81dhIBOBo2CNtTqQzgJL7TzySySmp6O7uxltvvIqdOzQC3hUIrEMCJEACJOBzBCgAHQhAWQWSJqboRMGk9v7JONNvvgVh2XPRY7Oh/K3XUf3F5w5fgqR1VyL6jDNHLADF0zj1rnthiY1FR1UVCh57yOH2rd2I0RaA7tozkX5DxMcnYNU5qzE7e47KWyk3fjz95KOor5u8HuuJxJ+2kAAJkIA3E/BpAThw4kwmE8IjopCUkqaSQkuZzImgjX7+yLz7PgQmJ8PW0YGijX9DY85hh+s5avlpSFp3lToHONRdwPK5nOSVhgwAACAASURBVAOMOu10WGLjYLJYHAaWSCdjIQD1tme8X/Y77roXqWnpg8wQ0ff6ay8j79iR8TaR/ZMACZAACXgBAQpAB5MkwR/TZ2RDro0Tz1jesRw01E8+r4rW+9Xd2oICiWQtdRzI4EoewMDEJKTe8HVY4uJcWvqjLQBHwx6XBjaKlRwJQLn2bf/e3fjn++9AAlJYSIAESIAESGA4AhSATghFREYhc/osFQwiKWAkFcxkK3oKQNXWnXerHIJSJBK4pSAfbaUlaCsrVTkApZgCg5B89XqVV3A0BeBo2TPeayAyMgoSiZyenoGQ0FDMzp6L8PAIZdbxgnw899dn0Okkx+J4287+SYAESIAEJg4BCkAncyGBITOz56kAkdaWZpUKRoJDJlPRUwBqg0k6Kitx/KnH0VlXOwiXu2fuPD0DOFr2TLT5j4iMxC233omo6BiIJ/C1V17E/n17JpqZtIcESIAESGCCEaAAdCoAv4oQFo9K7qF96OzsnGDTNzJz9DwD2BdMYrWi5JUXUbdzh0PjVBTwnRtgDg4ZVQ/gaNkzMuKj8/RV11yHBQsXq8aZBmZ0GLNVEiABEphsBCgAncyo5AScMXsu/Pz80d7Whtyc/Sov4GQrekUB22/wGO4soTaYRG4EKXj8YXTW1DjF6qkHcLTsEUMnUhoYsUebCHrbls14683XJtsy5XhIgARIgAR0JkAB6ATolPhEpKRNVZ/W19Ui/1gOehwlN9Z5Qsa6uZgzVyLhkstHnAcwc8O9CJ6aOWQ0sXgcM267Q9WTMpxYlDpaAVj16cfqXmJXymjZI31PtETQvArOlRXBOiRAAiRAAloCPiUAJc1LUko66mqr0dzU6FTQyU0gGZkz1FVwUo7nH0VNdeWkXDn+kVGYetc9kCvYnN4EctFadR3bUDeBaPMENh46iMLnnlXXyvUVgwFJV1yNqGXL+9pxRQBGLFyMlGuuVdfStZUUI//Rh2FzIchhtOyZ6FfB7d2zCy+/uGlSrlUOigRIgARIQD8CPicAJb1LSGiYOjAvV7w1NTao/wZ6VO6/yKgY9blE/0oR4Xei4Nik9P7Zl1Hcuasx5YKLhrwLWLyfionB4DAPYFBKKtK/cZu64UOugeuoqkTDgQPoqKmCpGMJnTETllP359o6O2G0WGDr6kTxpufRcGCf0xWtFajSrtwd3HDwgLJBBKQUR3cBj5Y99ADq98uHLZEACZAACYwfAZ8VgK4gr646ieLCAnXF1qQuDrxz2vGKYKv85CPErjwLci2cs0TQsp0cf9HFMPr7O8bV04Pm/Dy0l5chZuUqJRRlS7dqmLtrp5x/IeLOO7/Pcziw8brdO1G8aeOgPkfLnol8BpAewEn9pnJwJEACJKAbAZ8SgELNZDIjLDwCkudPEj1Lmhe5RkuKeLkk4rexoR6VFWVoa/OtpLphs2Yj/qK1Kpef3KAhW7ithSeUSOtqaEDmhnvgHx0z5E0gQalpiL9wDQJTUmEK6L1NRYrkBazZshkn//keQmfOQur1Nyqh2Hj4EE48+/SQ9wHL82Jb3OoLEBA3RXkPtcWZAJQ6o2WPbm+gDg3xDKAOENkECZAACfgYAZ8TgD42vxyuDxCYv2AR1l15jTqzWlJcpO4D7j3WwEICJEACJEACjglQAHJlkICXE4iNi8Mtt92F0NAw5cUuLi7E8fx8NDY24NjRI6hzkJDby4dM80mABEiABEZIgAJwhAD5OAlMBAJXXLUeCxct6QtesttUVHgCTzz20EQwkTaQAAmQAAlMIAIUgBNoMmgKCXhKQCK0ZSt4+ekrEBsbq862ys8oAD0lyudIgARIYHIToACc3PPL0ZEACZAACZAACZDAIAIUgFwUJEACJEACJEACJOBjBCgAfWzCOVwSIAESIAESIAESoADkGiABEiABEiABEiABHyNAAehjE87hkgAJkAAJkAAJkAAFINcACZAACZAACZAACfgYAQpAH5twDpcESIAESIAESIAEKAC5BkiABEiABEiABEjAxwhQAPrYhHO4JEACJEACJEACJEAByDVAAiRAAiRAAiRAAj5GgALQxyacwyUBEiABEiABEiABCkCuARIgARIgARIgARLwMQIUgD424RwuCZAACZAACZAACVAAcg2QAAmQAAmQAAmQgI8RoAD0sQnncEmABEiABEiABEiAApBrgARIgARIgARIgAR8jAAFoI9NOIdLAiRAAiRAAiRAAhSAXAMkQAIkQAIkQAIk4GMEKAB9bMI5XBIgARIgARIgARKgAOQaIAESIAESIAESIAEfI0AB6GMTzuGSAAmQAAmQAAmQAAUg1wAJkMCEJnD2+ploa+7EtncKhrTTaDTgkrvm42Rh47B1nTUkbYTHBqLuZKvbTC66ZQ66Orrxr5ePqv8fzbLm1rmwBJqx+fU8VJU0jWZXbJsESGCSEqAAnKQTy2GRwGQhkDEnBufflI3Kwkb886+H0NrU6XBo0xdNwflfnw2zvwnHdp3Eu08f8AjBBTdnw8/fpPpyJORikkLQ2dGNxuq2fu1fdvcCTJ0bi5K8Orz+0J5RFYGqr3mxaG3sxHt/OYiinBqPxjqUEA4M9UdLQ0e/KiI6z/vabBzcXOq0z7CoAFx061wU5dZi+zsFsNl6dLWNjZEACehDgAJQH45shQRIYBQJrL5xNuackYSTRY1KXDkSgWtvm4usJfFoqG7DRxtzPBZFCVMjcPEd89Bc1443Htk7qK9F56Vh2ZoM5O+vwuZXj/V9LqIsaXok3nliPwpPCbLohBBcfOc8VJxowNa3CwaJRk+R2QXg3k+K8OkLRzxtxulzQaH+uOyeBagqbhrk0TzjsmlYcE4Ktr97HDv/eWJQG9mnJ+Kc62bC7GdS8/XuUwdQX+W+R1X3QbFBEiCBfgQoADU4LAEByJo5BxZLgPppbU01CvJyuWRIgATcJGAXKN1WG7549Rj2fFzkZgv9q6fMjMLa2+YhMNgPuz8qVKJEW+JSwyB9Sn9vP7EflUWNI+pPicnF8dj/eQk+fj6nX1sLz03FmVdMR+HhGrz12L4+D5cjASgP3vDD0xAZF4Qv38gbMQe7IXa+uz4sxOcDWIxo4JqH56xIwqprZihBLd5QO9OwmEBc+a1FCI0MgAjQz1851q9LuxCXrXhnYt1VG/VeR672y3ok4AsEKABPzbLBYEBaxjTExE7pm3cKQF94BTjG0SAwGl/cV317MUQI5m4vx3vPHOxn9tnrZyB9TgzeefKAQ/Enz7XUd6C2osWl4S67KAOnXZKJE4eqlRdQW+wCcO+nxf3E11ACUJ7f+MBWl/p2pdJYCECxw96PiECtsF79tdmYc2aS2oJ+87F9KC+oV2brLcRHYx25wpd1SMAXCFAAnprl8IhITJs+CwajkQLQF1Y+xziqBEbji3v5xVMxa1kC3nmqv8gT0SFbxNvfLUDenspB45q/KgVnXD4N7S1dLnsHU7Ki1Dbml2/mDWrTEwFoNhvxwu92KBv0KGMlAO3nKv0tZuz84ITy5koRpiuvykJ3VzfeemI/inNr1c/PvX4WshZPwYd/P+xwLtwd+2isI3dtYH0SmKwEKAABmM1+yJqZjaDgEFRXnURkVDRMJjO3gCfrque4Rp2Au1/cIu4WnJ0Ko8ngtm0SuWswGtT2r6MiAR32dgd6slzpbMbSeMi5P4m4lWALTwRgQLAfXn9wD2rKm13pctg67grA+WenqMhmV4JFIqcEoaGqTW1ti91Xf3cJ5Gdb3szvO/MnovuSO+ehsrhJnXmUunLeUew6frAan77Q/+iMzJHJz+h2YIy762hYcKxAAiTQR4ACEEBicioSk1LR1NiA8rJiZE6fSQHIl4QERkDAky/u9OxoFV1bUdAw5pGjds+VCMmBxS4g7cElZ66bhriUMFi7utHd/VWEq8lshMlsUCKnRxP4Ks83N3SMmwA847JMLFqdjo7WLnz43GEl0JwVEXoX3JSNL17NQ2lenao276xkhMcEYfNrx4acFzkvKOcC33myVxDai4i/i++cj+Awf4dBNUMtM0/W0QiWLR8lAZ8i4PMCMDg4BNNnzoH8kjp2JAc2W7fyBtIDOD7vgV9YGKbedS8ssbFoOXEc+Q//GYFJSYi/cC2Cp2bC6O8P+XbtrKtF1acfo2bbVvVvh8VgQHB6BqKWLENw5jSYQ0Nh9PNTVXu6u9FVX4fa7dtQvfkL2Dr7p7uQOtLv1Ds2wOhvQelrLyM4LQMRCxfBYDKp/ktfeVnZmHT5FQifv0DZZm1qwskP3kfN1i+dAzQYEDZzFmLPOQ+BCYkwWiyqbnd7O9qKi3Dyow/QUpDv8gQkJCTi6mtvQGxsHJqaGvHGqy/jyJH+gQsuN6ZTxZF8cUsUKQwGHPqydJA1Ep0qKWHydp/EoS1lQ1ornrrQqADluRouL5+8/3KGUNKeSPCCVrwM9FytvHI6MubGqnOIrgSb3PCD5TCajHjj4T1orG13aLN4GVesm65y+7lSRGya/YywdvYXoQOfNRig0uLI+KTI+IYSgZJyR1K4yHPOXitn9ok9tu6eQSJR2vKzmGCAQUVOv/34V4Ezw411JOtouLb5OQn4OgGfFoAS+CHevojIaLX1W3g8T20DUwCO32uhFYDtFeWo3vw5Ei+5vE8kaS3rsdlQ+dEHSnA5KsnXXIuopcuHHUxnXR2KN/0dLcf7Jxq2C0BTULASi37hEUqY2EtXYyNaC48jfM68fj+3dXSg6Pnn0Hj40KC+ZXypN96M4LT0fs8MHJcI09JXX3LpW/jmW+7AtOlZfU2crCjHU088ira28Uu9MZIvbjlbtui81EGeNBmgXUxYO2347MUjKh+dFNmqHHi+TjxfSy/MQGtzF3a+f3zYCFyJbvW3mFBd+tU2bXx6ONbcNlf9TDxgrgaRaOdTu6U61GKULVSzv7GfAHVW390t4GFfglMVRITOW5mkxO1QnkJX25N6kjJn+dqpaj6P7KzAtrcLnOZyHNjuSNaROzayLgn4IgGfFoDRMXFInzod1q4uHMk5gPb2NgSHhFIAjuOboBWA1ma54cCgPGsiplqLi2CyWBA+dx4C4hOUGhCPW8GTj6G9fLA3KOW6GxC5aInyrImYbD1xHF1NjYCtB37h4QidOQsBU+JVOyLmjks7FeV9o9cKQBGb9Xv3oK20BFFLl/X2f6q0lZSgbtcOBGdmImz2HBVIVLd7J4o3bexHUsaW/o3bEJicon7e3dqCpiNH0FpUCBgNCEpJQ9jsbDXe4cStveHQsDDcevsGxMTE9vXV2tqKvzz9OMrLBnvQxmpqR/LFLQJw8eo0OEpxYj9/J0mGJcWIvVy6YT5ErB34ohS7PjihxIa9bumxOiVonCWQtreRNC1SbXe+/5eDfV6stFnRWHvHPPTYevDJP3JxZEeFRwjFqzn/nFQVROHKObzhOhkqInq4Z519rj3vp0fqHulHRO3l9y5AU1073n/2kNt5EEeyjjzlwOdIwFcI+KwA9Pe3IGvWHAQEBKK4sAAnK3oFBAXg+C59rQAUS0QEFm18Ds15X+Uaky3ZjNvvVNu7sk9V8f67qPz4w0GGi/dPnm/MzXHsSTMYkLL+ekQuWqxEYM2XX6D0tVccCkARefmPPAhbVyfCZs1G6g1fV15JEXEFTz6OtpJiiKcw8+57lagUUZf30J/69Zu07kpEn75C9SVbvCf++hf1vLbImNJu+gbMIaEORamj2ZmIHsCRrCJ7CpY9kmNuQI47bQ4+bXoWSQMjkam52yvwwd8OKQHnLFhjKAG07r6Fyqt48Ite8aztL29vJVZcPk1tqbpbtOcI9chTKLkF45JDUXuyBa/9ebfTrWV37DzrqiwsODcVNqsNn2zKHXaL3VHb9i16EbmS+/G8G2YhMMR/0LlAd+xiXRIggdEh4LMCUHL+xcbFo7WlGUdzD8Fq7U3PQAE4OgvN1VYHCsCarVtQ+sqLg8Xd8tOQtO4qdR6v8dABnHj2GVe76FcvICERU2+/S50PHCjatB5ArUfPPzoaU++8B/6RkeiorET+ow8poSklc8O96qxiR1UVCh57SIk4Kdp+5PygeBuljqMSe9YqxK+9FHJEwZm41T43Ec8AejQZpx4aSrg5E4DiNVxwdkq/pNPuCkDp/vJ7F8ISYMZLf9ipRKQkfF5wTqra/hVBI7eEyDZxWUF9v3OF4pFLnBah7iCWGzJGsyiv2n0LlR2Sh2/3x4V9gnUk/V713cVInBqBsrx65e2UNDgS7etOMZkMSiDLdrwk0JagGrmWj9fBuUORdUlgbAj4pAAMDYvA9Bmz1KHkvGM5aKjvjXajABybRTdUL1oBqM7SbfwbGnMOD3okKCUVGbffBVNgYF+wiCfWa/sbKNq0ArB2xzaUvPgP1YWjQBV73/ZtZzlXWPD4w+is6b2jNebMlUi45HKn28Na27Vjazp6RIlFXyrjKQBFSM4+LRHvPNWb2+6SO+cjYWo43nx0n7rOzVGRrdP1/75UiR67cBzN+ZJADTmXKOKvLL8eQWEWvPbgbt27jIoPRlxKqOrDWfCKttNpC+NwzrUzIXcI11W0IGdbucOr4nQ3lA2SAAl4RMDnBKBE906fmY2QkFDU1lTheP5R9GjC3egB9Ggd6faQVlyJ96zg8UfQUXlyUPtacWaPFnZkhHgI5Rxg1GmnwxIbp84QagM5tM8MJQAr3n0blZ985LIAVFvDEohR2ruVmHr9jSqCWLasKz/+CA0H9zllJlvJyVevh39kFLRbz7pBnuAN2QWgnLvTplkRsyWaVbZTCw5U9buhQy8PoOT7O/3STOx47zi2v3cc139/ucov+MJvd/RRE/skmrWxuk39TM4eXnBztvL+OTsjKImou7tsqs5Ii32LXO4bPrylTHkpJSCmYL9jj/JI+3Plebk1RbjI3cFiS1VJr0echQRIYOIS8DkBmJCYgqSUNBX4cTT3IFoHnsFiEMi4rtahPHJaw1wRgIGJSeqsniUuzqUxjaYAzLznm71nFt0sA21y83GvrD6eHkBt3we/KFFbwsd2V6otYHuR83fiHbMnnpbIZEnLYu1ynIjanopFUqR8/spR7Pu0eETzIoER4gXc8f5xbH2rANf8+1K0NXcOurJuRJ248HBYVADaWrpU3sDIKcHqruPxFKEumMwqJEACGgI+JQCDgoKRNXMOzH5+KCspQlnp4Avq6QEc3/dDLwGo2rnzbljieu92lkhgCbyQKN62slKV1kWKKTCo19sWFT3o3J5WZI7UA0gB6Pq6migCsOhwDc69YRY+/Uduv5QoIgC1N3sM9D4O/Ld9PJVFTXj3mQNuR8JqyYnouvLbi9U263tPH1B2SfuSauXTF454HKXs+ux8VVPyGwaHW5QXUnItOjvnJ4Ehc85Mhgjq4SKxPbGDz5AACXhGwKcEoNz2Ibd+WK1WlJcWoatr8L2cEhUcn5gMo9GI5uYmVJ6KDu7s7ECzpBBhGVUCegnAvkAKo1EFahx/6nGVvHlgcfUMoF4C0NbVpc4S1u/V/8zWqE7MGDY+ngJQ0rWsuGK6ylUnXr2Zy+Lxyp9298sx6KkALDxcM2Iv3Zwzk3D2+plqq/XF3+3ou67tim8uUqlqXntoj273DQ835cIhOiEYh74sU55NR8m2Rfxd+I05SJ0VhdK8enVtHEXgcGT5OQmMDQGfFICeoK2tqUZBXv/7LT1ph88MTUAvAZh+8y0Iy56LHqsVJa+8iLqdX53h0lqgonPv3ABzcMioegDtZwDlBhK5VaRWbjBhcUhgPAWg1qDVX5utEjNLDkEpEhEbmxwKuVfXEw+gHgJQhF5yVmS/e3nFtjkrkiCex0ObS/GvAalzXFlms0X4upniRs5iGoxwmLDb3qf9zCYkf3oPUJJXRxHoyoSwDgmMAQEKQBchUwC6CGqE1fQSgPYt14HBGAPNi9KkkxkYuavnFnDsqnOQsPYSFYDiKEn0SLBN1jQw4xEEop0HyQlYVdKszvtNSQtD3ckWfPlGvkqPMh4CUK6Lk7x6cp3bqw/u6beVLEJL7BWR+uHfDyNvT6XbSyplZhSMBsOgFDfOGhIPYHhMoBJ0EpDCQgIk4F0EfEoAujI1PAPoCqXRq6ObADyVj2+oVDJGP39k3HaHytsnZaBY1FMAavMAyu0lJ/7ylLrZRI8y2RJBj6cHUASUCC25AUSEX0ebFbnby1VUsH3rcjy2gGUrVQJSYpJC8OXreeqWlIFFchRecuc8FYyiR7Lp4damtwjA0NAwrL/ua0hNS4fNZsPundvx1puv9cv+MNxY+TkJTEYCFIADZpUCcHyXuV4CUN26ccaZajCNhw6i8LlnIduvfcVgQNIVVyNq2XKVm2+0BaC0r70JpP3kSRQ++zQ6qh2n7ghKS0fcOeehbtdONBxwnjJmol4FN5JVNNYC0BJoVmlcUmdGw89iUsJA7v7d+0kxcraWDQpuGA8BuPrG2cg+IxEF+6vx9uP7nAZcLFqdhjMum4aW+g6898wBlB93nLtwJPNjf9ZbBOAFF67FylXn9A25s7MTL72wETkO7urWgwvbIAFvIUABSAE4odaqXgJQkinLvbtyw4fk3uuoqkTDgQPoqKmCpIcJnTETllP359o6O9W1bnLNW/Gm5/sEl54eQIEs+f0ybrkNIu6kyPnE5vw8lci6q6Fe5f0LTExUn8uZRJucX3QhYIQeQKiEzZkLYrHzn4V9KVvcuQlEomiXr52Khuo2db7u2O7BuSe1wmcst4Al6GPeqmQV+CH3Hw8XRHHRLXOUF7O9xYotb+Zh/79KRuUd9xYBeMml67BcrmDUlG1bNisvIAsJ+DIBCkAKwAm1/vUSgDIouX0j/qKLYfT3dzzGnh4lwNrLyxCzcpUSiuXvvIWqzz5R9fUWgNKmjC95/fUInZ7lNCG13VjZvi7+x/NoOLh/yDmarGcA935a7PJdwEsvTEdzQwdytpb3sXJHAMoZOomwldsrHEWzaidgrDyAYtOq9TNUgId48lyNoJXnLhZBPC8WPehBxfEGfPx8ru7Jmb1FAEZERqot4OTkVHW9opS9e3bh5Rc3TajffTSGBMaaAAUgBeBYr7kh+9NTAEpHQalpiL9wDQJTUmEKCOjrW/IC1mzZjJP/fA+h/7+9O3+OqzjYPf6MVmu1dsmWvFuy5AXwAiGE5SULMQYSJwaSULkvscHBJHnfqvf+A7fuL2/dqlv3h/smEIjZt8B1cEgCBGxsMJgAwWDwKnmRZUnetO/7cqvbyIzlGY00OhrNzPmeqlSM5kyf7k8fmYc+p7tLy+xOHSYoth05rKpnn7JhcCoC4EgFzAikmRiSVFh0sV7mX0zDwxrs7lJPXZ3aDh1Q075PNdjVFVb9E4rKmNmsq787z77n9sGoGa3+9gL2Va/r71io625fqP3vVl9RzmTaESgAmusWlWTZkUgT3CZS55F6mXf+zALLZmKGeQdx14tHJ7Sf7sjyK+ZdRjMD16zRZx5rH3y/VuWfBg65o32KijMv7k19utUGZFP+3f99jV0HMJImgWx+6Nf2XUAC4GR+A/hutAgQAKOlJ2kHAlEiMDoAzlowU8Wr8xUbG2P35c2bk65DH56xs11HDhNQvrV+sV2mxezsaN7ji0uItWvjmUe6+3ZUOaYzOgCax8cZecn6+I3KSzNzr7q5SPOWZqujuVczc5M1ryxLJ7+s1+t/8P8+50gFF16Vq1vuWaLYWI/e21YR1IxeU5YZCfz+xuUqXpmvmFiPzE4kjec67ISWY5/5f8TtC6pkTYHW3DbfTkIxh3E16ySaHUhef/yAzpz4ej91x6AdLigrK1sbH3xI6ekz9dabf9NH/9jr8BUoDoHIEiAARlZ/UVsEol7A1wigCUXmHb38uenq7xu0+82aEDj6MCNT3/5ZmRZenWsDkFm6ZfSSKZMFHB0A/ZVXvCpfN/xgkd0mzYzAmX2AzQLT/g4TXr+1vtgurnxw7xnte/vUhEb9/JVr9jc2k0M+33Van/uYPTwRD9MPZu/hrPwU+zWzJ/JYk1ImUvZUn3vb2jt04023qLOjQ88+vVXnz3/9usBUX5vyEQhHAQJgOPYKdULAxQJmQeJ5y3JsWDr55dfr2Zlwd9eWa+yacx+/ftKvkAl+G/5jtTzy2FHCpvOdjmqa0bmaiqZx7XtrlpW5fdNyO4Fj5wtH/L5faCZuzMxJtqHW18xjRxswycLSc5LspBvzbqHZJs/fFnCTvIyjX1+1+lrdcdd6xcfHa+8He7TjrTccLZ/CEIhEAQJgJPYadUYAAQQQCCgwMyNDa2+/S0uXLbfvMB74cr/+/Or/06D3klABS+EEBKJTgAAYnf1KqxBAAAHXC8xfsFD3/fwX9nUA887f7nd2sAC06+8KAEYECIDcCwgggAACUSlgRv0WLlqsmupq9fX1RmUbaRQCwQoQAIOV43sIIIAAAggggECEChAAI7TjqDYCCCCAAAIIIBCsAAEwWDm+hwACCCCAAAIIRKgAATBCO45qI4AAAggggAACwQoQAIOV43sIIIAAAggggECEChAAI7TjqDYCCCCAAAIIIBCsAAEwWDm+hwACCCCAAAIIRKgAATBCO45qI4AAAggggAACwQoQAIOV43sIIIAAAggggECEChAAI7TjqDYCCCCAAAIIIBCsAAEwWDm+hwACCCCAAAIIRKgAATBCO45qI4AAAggggAACwQoQAIOV43sIIIAAAggggECEChAAI7TjqDYCCCCAAAIIIBCsAAEwWDm+hwACCCCAAAIIRKgAATBCO45qI4AAAggggAACwQoQAIOV43sIIIAAAggggECEChAAI7TjqDYCCESfwNpNK5Q6M1F7tlWovrY9+hpIixBAIGwECIBh0xVUBAEE3C5w04YSrf7uPPX1DGjXS0dV8el5R0jmlGTpqluK9MGfj6utoduRMu/YfJXiE2K147nD6mrvc6RMCkEAgdAJEABDZ82VwlAg45pVnGMGPAAAIABJREFUKrrnJ4qJj1dn1SmdfPS3QdXSqXKCujhfihqBkQB46lCD/vLIfsfaNa8sW+s2X6XYuBgNDgxNulyPR4pLiFWMx6OTB+r0t8e+nHSZFIAAAqEVcF0ATEhIUOmyq5WQkBhQenBwQMfKD6uzg0cxAbEi9ASngptT5UQoo2uq/YOHr9HCq3JtiNr75+Pav7va0baPBMDKA/X66++/cKzskQDY2tCtl/7z40mXmz0rVT/8zUr1dQ/olf/9T/X3Dk6ozKl2nFBlOBkBlwoQAMfoeAJg9P9WOBXcnCon+sUju4VTHVwiLQD2dPYHFSin2jGy7zJqj0BoBFwdAFuam1RddcKv9PCwNDDQr2HzB46oFHAquDlVTlQiR1Gjpjq4hGsAjInxaO3G5cosSNHO549osH/IjgASAKPo5qYprhNwdQBsamxQ5Yly13U6Df5awKng5lQ59E14CwQbAM1j44y8ZH2xu1pDQ/7/g3K8ATBvbrpu37RcZ0+2aNeLR8cs04h6PwLe9n8+1Z2/vFoFC2aOG9u88xefGCuPx6PGcx3au/24bv1ZGQFw3IKciED4CRAACYDhd1eGsEZOBTenyglh07lUEALBBsCV356rG39UrOGhYQ0O+g+AsbEeO7lioH9ozMkaZkTOzMA1YfLzXaft+4hjHaPfAUzPSVLO7FQ11Larrann0ldH6nn6SOOY7yCOvAPICGAQNxFfQSBMBAiABMAwuRW9quHxKGX+AmWtuU4pixYrLi3NztI1x/DgoPpbmtX0z0/U8OFeDfX1Bqx/etlSFaxdp8S8fHliY20ZXaerdO7N15WQlT3uWcBOlJNUWKiFm7coNjlF9e/ttnUwf551+zrNXHGVYpOSJY9HQ/396muo14V3dqr1oJ8Zlh6P0kvLlHvrd5Q0a7ZiEi9ObBrs6VF3TbUu7NqpzsqTAX3M9XNv+RdlXL1S8TNnWiNzmDoMtLer7cghNX70oXrr68csy6lyRi5iJmr98EcbtHzF1RoaGtLHH+3VjrfenNZXMiYbABvPdY75ztx4RwBHglp1edO4ZguPdxIIATDgrwsnIBA1AgRAAmDY3cxmWZasa78RsF59zc2qeflFdZ6q9H2ux6M5d/9EmWuutaFq9DHY1aXm/Z8p67rrx14GxqlyJHkHwObP96np44809+f3Kz493WcbzDk1L790xWfmfPO9lHnzfbbNhuWhIRuUz/z5T5Kf91hN0B7r+iMXNuGv8vFH1N/W5rOeTpXjXfg3b7hRa9fdpZiYGPvj3t5ebXv5RVVUHA14b0zVCcEGwAXLc3T7AyvUUj/2LNyJBsBAI3UjDgTAqbojKBeByBVwdQDs6+vV0OCgEmck2XdbzChDd3eX6i+cU1Njvf1njtALzPnpfcpctcaOZPWcP6euqlPqb2+ThobtCFVaaZlm5BfY4GMCyaknHrfnjT7yv/d95X3ne/LExNhRv46TJ9R+9Ig8cXGauXyFkufO09DAgB3xMuf4WwfQqXJM/bwDYOuhg0rMztaMglnqa2lW2+FD6rlwXnHJKUpZuEipixar5cAXVwRAE/7m/+IBJRXNsU0e7OpUe0WFuqpPSzEeJc+Zp/SlyxSTkGBDYN2unbqw8+0rfMyI3aKHHtaMWbPtZ/0tLWo9dEB9jY22nITMLKUWL1Fibq79mb8A6FQ5oyu44Z6f6pqVqy/78c6339T7e94N/U351RWDDYDjDWAEwGnrWi6MgOsEXB0Ax+rt3t4eVR4vV2dnh+tuiulusBn9G+hoV1v5Ud8jV2ZE7t6fKXPVahsCG/+xV2de235ZtU2oWvDgQ3ZkzTzKPPuX7XY07NLh8ajgtrX28akJf+bwFQCdKmfkut4B0IRSMzLX8I8Pde6Nv17R1sScXKUuXqzGjz+6rG2F63+s7G9+y7bdPOKteu4ZGwK9DzMiN+9ff6G41DS/Idn7vcXu2hqdfOxRn4/UTQA0o6T1e96z/TL6cKqc0eWG4whgsL8bkRwAzfuGd/zyaqVlzdBbTx1U0/lOTfYdwGAd+R4CCDgn4NoAaJZ2aWyoU093l/r6+pSYOENp6TOVmZWj2K/egRoYGNDx8kOEQOfuN8dKMqNWCx98yL4faEa+TjzyX5cFqNybb1HBurtsuOs4fkyVTzx+RcCyI1cP//riaKKfAOhUOb4CoPmZGXE7/fyzfh/Rjgbzbndfc5Md/fT3bt6luns8Ov/231W3+53Lisu79TsquP0O+7OR9xGD6SCnyhl97XB8BzAYH/OdcAuAGbnJuu1flym7MPWyJo1MLhkY+HoSysjP5JHdn/jvTx60T0wmswxMsI58DwEEnBNwXQA07xPFxyfIjPD5OuLi4rS4ZKlS0y6+k9XW2qwTx8wyCzwOdu62m3xJZmRv4UO/to8nfb2fNv/+jUpftsI+Aj33+l/UsPcDnxe1o2k33Og3ADpVjq8AONTXp+o/vmAf/Y73yLnxJs2684c22Pp7P3CkrOQ5c+0oaGxSktqPVdiw6H3k3nKrZq27044kth0+qKpnnx5vNaaknKAuHiFfCrcAaNiyClKUNyfNLiUzMhM4VJNAIqTbqCYCUS3gugA4nt6cMSNJS8pWKD4hQUNDg3Y7uA7zDhpHyATMe3nmPcCs67+pxNw8xZoZrj4mcpgKjQ6AMfEJWvTwb5RUVKSh3l5Vv/S82o4e8Vn3rG9cr8L1G+x7gKMfATtVjveFvR8B9zU22Meu/a0t43ad+7OfK2PlKjtiWLd7l1oP+d+D1YxwFt19r32Xr7u2Vid//zsN9fddupZ5z3D+/ZtsQDSPo807iWaUsOfc2XHXx5zoVDkTumiEnRyOAdAXoXcArKtuU9n1s3X0k3P6bGfVZdu98Qg4wm5AqouADwECoJ/bYt6CxcrNu/ho8ExNlc6dreUGCpFA0uxCzb3vvykxL29cVxwdAL1HB827cZVbH1P3mTM+yxpr/T6nyvEXAP1NOhmr0Yt+9W92iZyJHv5m8RbdbWZcX3dZuDbvTPY3N6urplqtB76wo4f2fcUxDqfKmWi7IuX8ktX5+u7PlyouPlb9ff4tJ7oOYOXB8e0ZPN4AOnoE8KYfF+uaW+equ71P722r0In9dZacABgpdx71RMC/AAHQj01Wdq4WLl5iPzXvCp46eYz7KAQCNnT98mG7Zp85zExgM9Gh+0ytus+esWsAmsOsl2dHt7KyrxgBdCq4OVVOOAdAM6qa/Y3r7WSYhIxMn6Os5l3DM6/+Se3Hxtg1x6lyQnCPTcclRoKV0+sAhmIZmLWbVqh0TYFaGrq0/b8+V1tDNwFwOm4iromAwwIEQD+gZjLIouJS+ylbxjl8141RnPeki966Op168g8yAWT0MdY7gE4FN6fKmYoAaEbpare9opYvPnesc2KTk+3C0mbpF7MEjVlyZ+Sx+1jL7YyugFPlONawMCjIBMDr71yk8k/O6d1X/AfpiSwDs+a2+Tr22QXt2VYRsIXBjgCags2uIT/+91WKiY3RX363324FxwhgQHJOQCDsBQiAfrqIEcDpuXcvTboYGFDt9m1q3vepz4rY2bC/3KK4lNSIfQcwmEfAI+8AmkeyZ157VU2ffDxlHZVaXCLzaDchM9NeI9iZwk6VM2UNDUHByWkJ8sR41Nk69s414w2AE63yZAKgudZ1ty9UTKxHB/bUqKu9jwA40Q7gfATCUIAA6KdT5sxdoPxZhfbT6tOVqjs/sRfjw7CvI6JKI++4BXp3z3vyhtkRpPIPj15cwPirw6nZu06VM1Iv70kgwQRA75m7gWYBO9Hh3s6TmSkcTDnRtAzMePsiXAOgCbA//PVKzcxJ0jsvHlHz+S6WgRlvp3IeAmEqQAD00TFmTcCS0uVKnDFDg4MDdhZwp48FcMO0TyO6Wou2/NrOKh1r9q6Znbvggc32PHP4Covey6VMZh1Ap8pxKgB6rwNo9umteuZJO1ljqo6Mlas1556f2N1TJhMAgyknmhaCHm//hCIA1pQ3atkNhXZEcvThax1Ac87I5BTz557Ofu197bgdFTR/fuk/p24UerxunIcAAhMXcFUAjImNVXZ2rlpbmuziz74Osw7ggkUlmpmRZT9uaW7UyePl07oB/cS7NXK/4b0un1kf7/QLz14+A9XjUeGP7lbWdd+4tIOHrwBolj5Z+NCvlJCV5X8nkLXrZEbUxtoJxKlynAqAphzvnUB6LlzQ6WefUm9Dvc9OT543X2ah5ubP9qn14OVLxmSuXqPEnDzVvbvL5w4gMQmJmr/xAfs+oF125t1dOv/Wm1dcx6lyRhccjlvBTfVvVigC4Mv/6xMtubbA7uhx4XRwy1vxDuBU3wmUj8DUC7gqAJodPoqXLLOLPHd3daqpqUG9PT0yewInJCQoJTVd2Tl5MiHQHOazY+WH/C4aPfXd474rmMWLzT63ZocPEzp66+vUevCgehvrZZaHSVtSKrNFmjnMQsoxiYl2bbual/94RcDJ+/Z3lX/b2jH3AjY7wphdDey2alWndPLR316B7lQ5puDJPgK2ozHJKVqw8QGZcGeO4YEBu8+xqb9ZU9CE1qTZs+3n5h1Js9+xrwkjIzt4mMWyey+cV2dVlXob6jTY3W2tZy6/SvEZGfYaY+064lQ5o+EZAfzCsb8AxvsO4HgvSAAcrxTnIRC+Aq4NgIG6pKuzwy790t3dFehUPndYwDx2LVh7h2ISEnyXPDxsA49ZsDjnpltsUDz35uuq3/Pu5ef7GC30PsEESDOqlXvTzTZU+X0nz6lyHAqApg1mhnLRvT9TWnGJ3wWyR9pqHqfXvPJHu+2c9+G9hdtYXWgeNdf+6RW/i2k7Vc7oOvAOYPgHwKGBIW3/v59d2knE4b8KKA4BBKZQwFUB0DimpKbZUT6z7298fLzi4uIv8Q4M9NuRwbrz59TS0sRj3ym88QIVnTx3ngq+f7uS5sxV7IwZl0436wI2fvShLux4S2mlZTKzYk1QbDtyWFXPPuVzT930sqUqWLvOri1odvwwM2i7TlfZ0Njf2qpFW36lhOwc/wHwq6s7UY4TI4DedmZE1DzGTiosuuhkRjOHhzXY3aWeujq1HTqgpn2farDryv+QMRZpJUuUueZaJRXOsaOuMfEXfx+MkbFp+XK/6ve8Z9+z9Hc4VU6ge8INn0/1I+D4hLEXoh6vsbnN4hJi1dHSe2lpmPF+l/MQQCA8BFwXAMODnVoggAACVwpMdQBsbeh2ZNLGyCNg04KRtQHpTwQQiCwBAmBk9Re1RQCBKBaItAA42D+ov/7+CzVf4FWZKL4taVqUChAAo7RjaRYCCESewO2bViguIUZ7/nTMbrnm1DGnNEs3ri/WgfdrdfgfvvfFnsi1ZqTE28Wgz1W2aGhoeCJf5VwEEAgTAQJgmHQE1UAAAQQQQAABBEIlQAAMlTTXQQABBBBAAAEEwkSAABgmHUE1EEAAAQQQQACBUAkQAEMlzXUQQAABBBBAAIEwESAAhklHUA0EEEAAAQQQQCBUAgTAUElzHQQQQAABBBBAIEwECIBh0hFUAwEEEEAAAQQQCJUAATBU0lwHAQQQQAABBBAIEwECYJh0BNVAAAEEEEAAAQRCJUAADJU010EAAQQQQAABBMJEgAAYJh1BNRBAAAEEEEAAgVAJEABDJc11EEAAAQQQQACBMBEgAIZJR1ANBBBAAAEEEEAgVAIEwFBJcx0EEEAAAQQQQCBMBAiAYdIRVAMBBBBAAAEEEAiVAAEwVNJcBwEEEEAAAQQQCBMBAmCYdATVQAABBBBAAAEEQiVAAAyVNNdBAAEEEEAAAQTCRIAAGCYdQTUQQAABBBBAAIFQCRAAQyXNdRBAAAEEEEAAgTARIACGSUdQDQQQQAABBBBAIFQCBMBQSXMdBBBAAAEEEEAgTAQIgGHSEVQDAQQQQAABBBAIlQABMFTSYXydtPR0bXpwi3JycjU8PKze3h41NDTovd07VVF+NIxrTtUQQAABBBBAIBgBAmAwalH2He8A6N20oaEh7X5nh/a8tyvKWkxzEEAAAQQQcLeA6wNgUlKy8mcVKn1mphISEuzdMDw0pJ7eHjU11qux/oL6+vqi+i7xeDx29G92YZHy8wtUWrZMObm5Mj+vu3BBT259VF1dXVFtQOMQQAABBBBwk4BrA2BMTIyK5sxXbv4sG3T8HWdrq3X2TLWb7gklJyfrgc2/Ul5+vrq7u/Xc01tVW1vjKgMaiwACCCCAQDQLuDIAmsA3f2GxsnPybN8ODg7a0b72thY72peQkKiU1DRlZuWooe686wKgMbnv5/erbOly9ff367Xt23Tgy/3R/HtA2xBAAAEEEHCVgCsDYE5uvg2A5mhva9XJ40c1MDBwRceboBgbG6eBgX5X3RSmsRvu+amuWbmaAOi6nqfBCCCAAAJuEHBdADSBrqRsuVJSUtXT061jRw+pr6/XDX09oTYSACfExckIIIAAAghElIDrAuDMjEwtLllq3/urqT6lC+fORFSHhaqyBMBQSXMdBBBAAAEEQi/gugA4Z+4CO+t3oL9fFeWH1N3VGXr1CLgiATACOokqIoAAAgggEKSAqwKgmflrRv/SZ2aos6Ndx8oPKzYuVoVF8+yED/P5yBIwdefPqrGhTmYtPDceIwHQvBtpJoF8+cXnbmSgzQgggAACCESlgKsCYFxcnEpKlys5JVUtzU1qaqzTvAWL7UQPX0dXZ4dOHDvqyncEf7ThXq1afa1l+WDPu9rx9ptR+QtAoxBAAAEEEHCjgKsCoFnouXTZ1XaZFzMCGBcXr8QZM9Ta0mxH+wYHB5SUlKK8gln2HHOYWcInjh2xS8W46fjmDTdq7bq77KhoR0e7tr3yR1WePO4mAtqKAAIIIIBA1Aq4NgCaHjX73tacrlTdhXOXdbAZKSxessyuBWiOUyeP2YDopsNsD7dx00PKzft6rcTq01Uy/6uvr7P/39zc5CYS2ooAAggggEDUCLg6AJqFn49XHPH5nl9GZpYWFZfZ2cLmcbFZK9AERjcdMzMydOdd67W4eIlMKPY+TADc+vgjbuKgrQgggAACCESNgKsDYFXlcTXUX/DZmeYRcOnSq5SQmKje3h6VHz6g/v7o3hN4NIQJfj9cv0EZmZlXGBEAo+bvABqCAAIIIOBCAdcGQDO793jFYfuOn68jNjbWPgZOTUu3wa/iyEG7cLRbjvyCWbr/Fw/KPAo2R0tzs/bs2a3DBw+ou7vLLQy0EwEEEEAAgagUcFUA9A51ZsKHWQbGTAYJFAADnRuNd8aNN92i29beYR+Bm3f+nnvmCRsCORBAAAEEEEAg8gVcFQBNdy0qLrVr/jECOPbNO7IOoDlr9zs79O7unZF/t9MCBBBAAAEEELACrguAs2YXqXDOfNv48b4D2NPdrfKjB+zuIW452AnELT1NOxFAAAEE3CjgugBolnYpKV1mF39mFrD/W54A6Ma/DmgzAggggIBbBFwXAM07beYxcEZm9rjWATRLv5h1AJsa691yT9h2EgBd1d00FgEEEEDAZQKuC4Cmf1NSUlVcuvzS2nZmJrBZDmZgoP+KnUDaWpvtdnBu2xOYAOiyvwloLgIIIICAqwRcGQBND2dmZmv+omK/+wCbc9rbW1V5okL9fe5a/48RQFf9HUBjEUAAAQRcKODaAGj62uwNXDB7jn0cbP5sDjPS193VqfNna9XS0uS63T9Gfgfu37hZi4tL1N/fr9e2b9OBL/e78NeDJiOAAAIIIBCdAq4OgNHZpZNvVXJysh7Y/Cvl5eeru7tbzz29VbW1NZMvmBIQQAABBBBAICwECIBh0Q3TWwkzMSYnJ1ezC4uUn1+g0rJlysnNtYtAXzh/Tk9ufYzdP6a3i7g6AggggAACjgoQAB3ljMzCzHZvmx7cYkOg92Eeh5tFoPe8tysyG0atEUAAAQQQQMCnAAGQG8Pu9zsSAM2yN+ax7/lzZ7X3g/d0/FgFQggggAACCCAQZQIEwCjrUJqDAAIIIIAAAggEEiAABhLicwQQQAABBBBAIMoECIBR1qE0BwEEEEAAAQQQCCRAAAwkxOcIIIAAAggggECUCRAAo6xDaQ4CCCCAAAIIIBBIgAAYSIjPEUAAAQQQQACBKBMgAEZZh9IcBBBAAAEEEEAgkAABMJAQnyOAAAIIIIAAAlEmQACMsg6lOQgggAACCCCAQCABAmAgIT5HAAEEEEAAAQSiTIAAGGUdSnMQQAABBBBAAIFAAgTAQEJ8jgACCCCAAAIIRJkAATDKOpTmIIAAAggggAACgQQIgIGE+BwBBBBAAAEEEIgyAQJglHUozUEAAQQQQAABBAIJEAADCfE5AggggAACCCAQZQIEwCjrUJqDAAIIIIAAAggEEiAABhLicwQQQAABBBBAIMoECIBR1qE0BwEEEEAAAQQQCCRAAAwkxOcIIIAAAggggECUCRAAo6xDaQ4CCCCAAAIIIBBIgAAYSIjPEUAAAQQQQACBKBMgAE5Dh1519Uqt//E9io+P1+DgoLq7u3S66pT+/ubf1NrSMg014pIIIIAAAggg4CYBAuA09LZ3APS+fEd7u158/mnV1tZMuFYJCYnatHmLCguLVHnyhF547in19/dPuBy+gAACCCCAAALRL+CqAJiQkKDSZVfLhKWJHB3tbTpecdiO1jlxmOvn5uZq3vwFys3L19JlK5ScnGyL/vSfH+uvr70a1GVGgmVsbKzeevN1ffSPD4Iqhy8hgAACCCCAQHQLEADH0b/NTY2qPFGu4eHhcZw98VPKli7T3ffeJxNQa2pOa+tjjwR1LfNIedODW1Q0Z67qLlzQk1sfVVdX18QrxDcQQAABBBBAIKoFXBUAPR6P4uLi5fEE7tPZhXOVk1dgg9jJ40fV0twU+EtBnpGVla2NDz6kjIxMNTTU66knHlN7W1tQpa1ctUY/WL9BMTEx2vHWG/pw7/tBlcOXEEAAAQQQQCB6BVwVAMfbjfHxCVqydIVmzEhST3e3yo8e0MAUvk+Xlp5uR+5ycnInHQC9y2IUcLw9znkIIIAAAgi4S4AA6KO/M7NytKi41H5y/mytamuqpvSucDIAmoqaEcBrr7teAwMD9n3C/Z/vm9L6UzgCCCCAAAIIRJYAAXBUf5nHxAsXlyozK1tDQ4M6Vn5YZhLIVB5OB0DvWcaHDx3Qyy89P5XVp2wEEEAAAQQQiDABAuCoDktOTlFJ2QrFxcWpva1FxyuOaGhoaEq71ekA6OQ7hVPacApHAAEEEEAAgWkRIACOYjeTP2YXzbU/rT5dqbrzZ6e8Y7wDYFNjg5584jG1tbZO6roPbH5Y8xcsVG9vr7a9/KIqKo5Oqjy+jAACCCCAAALRI0AA9OrL2Ng4lZQtV0pKqvr6elVx9KB6e3qmvLdTU9PsIs65uXnq6enRSy88o1OVJyd13R9tuFerVl9rZzGb2cB7P9gzqfL4MgIIIIAAAghEjwAB0KsvMzKztKi4TOY9wKle+2/0LXT/xs1aXFxif1x1qlJ/fPHZSa3hd/Mtt+p7319ny/ti/2d6ddvL0XPX0hIEEEAAAQQQmJQAAdCLb/6CxSFb+290ry1fcbXMqJ1ZDNocZgHnE8crVF9Xp5qaap09U2v3DB7v4T0RxATKJ7f+frxf5TwEEEAAAQQQiHIBAuBXHZw4Y4aWlK2w28SFYu0/X/fVktIyO2qXl5dvRyG9j51vv6n397w77tvROwBWn67S1scfGfd3OREBBBBAAAEEoluAAPhV/+bPKtScuQvsP4Vi7b/Rt5UJfN/+7m264Vs3XxoFJABG9y8frUMAAQQQQGC6BAiAkt02rXjJUqWlZ4Rs7b/RHf7NG27S2nV32rqYiRtmEsh7774jM3o3ODg44fuDEcAJk/EFBBBAAAEEXCNAAJSUmpauktJliomJDdnaf6PvsJFlW0z4+/KLz7X9T6/YIBjswTuAwcrxPQQQQAABBKJfgAAoad6CxcrNK7C9Haq1/7xvLe91ALu7u/Xc01tVW1szqbuPWcCT4uPLCCCAAAIIRLWA6wNgfHyClixdoRkzkkK69p+/ANjQUK+nnnhM7W2T236OdQCj+veWxiGAAAIIIDApAdcHwOycPC1YdHH9vabGelWeqJgUaDBfdnorOFMHdgIJpif4DgIIIIAAAu4QcHUANBMuFpcsVfrMDPu+3cnjR9XS3BTynnc6ALIXcMi7kAsigAACCCAQUQKuDoDJySkqKVuhuLi4aVv7z9wtTgdA7wkghw8d0MsvPR9RNyWVRQABBBBAAIGpFXB1ACyaM18Fs4us8HSs/TfStU4HwA33/FTXrFyt/v5+vbZ9mw58uX9q7yJKRwABBBBAAIGIEnBtAIyLj1dJ6XKZUcDBwQEdKz+szo72aem83Lw8bXzgIaWlpWuyk0AyMjO16cEtyszM0vlzZ/X0k49Pak/haQHhoggggAACCCAwpQKuDYBTqjrBwsuWLtPd995ndwCpqTmtrY89EvQagN+68WbdtvYOW4Mdb72hD/e+P8HacDoCCCCAAAIIRLsAAXAaetjsN5ybm6t58xcoNy9fS5etUHJysq3JJx99qNf/9lpQtYqPj7ejf0Vz5jL6F5QgX0IAAQQQQMAdAgTAaehn70ka3pfvaG/Xi88/HfQi0CtXrdEP1m+wRb7x+l+0758fT0PruCQCCCCAAAIIhLsAAXAaesg7AJp9fjs7OnTixDHt3rVDrS0tQdXIjCpu2rxFhYVFqjx5Qi8895SdBMKBAAIIIIAAAgiMFiAAck8ggAACCCCAAAIuEyAAuqzDaS4CCCCAAAIIIEAA5B5AAAEEEEAAAQRcJkAAdFmH01wEEEAAAQQQQIAAyD2AAAIIIIAAAgi4TIAA6LIOp7kIIIAAAggggAABkHsAAQQQQAABBBBwmQAB0GUdTnMRQAABBBBAAAECIPcAAggggAACCCDgMgECoMs6nOYigAACCCCAAAIEQO4BBBBAAAEEEEAX5T+oAAABV0lEQVTAZQIEQJd1OM1FAAEEEEAAAQQIgNwDCCCAAAIIIICAywQIgC7rcJqLAAIIIIAAAgh4lixfM+CRYqFAAAEEEEAAAQQQiH6BYWnQjACeljQ3+ptLCxFAAAEEEEAAAQQkVZsA+KqkH8OBAAIIIIAAAggg4AqB7Z7SFdf+QsPDT7uiuTQSAQQQQAABBBBwu4DHs9FjDHgM7PY7gfYjgAACCCCAgEsEqssP7Zt3MQAyCuiSPqeZCCCAAAIIIOBqAY9nY/nBT5+xAdCGwGVrfiuPfuNqFBqPAAIIIIAAAghEq8Cwfld+eN+/meZdCoCEwGjtbdqFAAIIIIAAAq4X8Ap/VwRAGwIvPg7+nywN4/pbBQAEEEAAAQQQiHyBank8/8M89vVuymUjgN4ffBUE75K0ZlgqZLHoyL8DaAECCCCAAAIIRLeAXeRZOiNpnzyev40OfiOt//+bPPvpkCX85wAAAABJRU5ErkJggg==;imageBackground=none;" vertex="1" parent="1">
          <mxGeometry x="160" y="200" width="358.62" height="260" as="geometry" />
        </mxCell>
        <mxCell id="Wl4oH_X68HvMIefPBBVF-2" value="" style="rounded=0;whiteSpace=wrap;html=1;fillColor=none;strokeWidth=2;strokeColor=#FFD966;shadow=1;" vertex="1" parent="1">
          <mxGeometry x="226" y="313" width="190" height="110" as="geometry" />
        </mxCell>
        <mxCell id="Wl4oH_X68HvMIefPBBVF-16" value="" style="group" vertex="1" connectable="0" parent="1">
          <mxGeometry x="157" y="594" width="363" height="320" as="geometry" />
        </mxCell>
        <mxCell id="Wl4oH_X68HvMIefPBBVF-5" value="" style="group;fillColor=none;container=0;" vertex="1" connectable="0" parent="Wl4oH_X68HvMIefPBBVF-16">
          <mxGeometry x="3" width="360" height="320" as="geometry" />
        </mxCell>
        <mxCell id="Wl4oH_X68HvMIefPBBVF-4" value="&lt;b&gt;&lt;font style=&quot;font-size: 20px;&quot;&gt;vm&lt;/font&gt;&lt;/b&gt;" style="rounded=0;whiteSpace=wrap;html=1;fillColor=#A6C4F6;strokeColor=none;" vertex="1" parent="Wl4oH_X68HvMIefPBBVF-16">
          <mxGeometry x="3" y="1" width="80" height="40" as="geometry" />
        </mxCell>
        <mxCell id="Wl4oH_X68HvMIefPBBVF-7" value="" style="rounded=0;whiteSpace=wrap;html=1;fillColor=#A6C4F6;strokeColor=none;" vertex="1" parent="Wl4oH_X68HvMIefPBBVF-16">
          <mxGeometry x="3" y="40" width="360" height="279" as="geometry" />
        </mxCell>
        <mxCell id="Wl4oH_X68HvMIefPBBVF-8" value="&lt;font style=&quot;font-size: 20px;&quot;&gt;{&lt;/font&gt;" style="text;html=1;strokeColor=none;fillColor=none;align=center;verticalAlign=middle;whiteSpace=wrap;rounded=0;glass=1;" vertex="1" parent="Wl4oH_X68HvMIefPBBVF-16">
          <mxGeometry y="41" width="60" height="30" as="geometry" />
        </mxCell>
        <mxCell id="Wl4oH_X68HvMIefPBBVF-9" value="&lt;font style=&quot;font-size: 20px;&quot;&gt;}&lt;/font&gt;" style="text;html=1;strokeColor=none;fillColor=none;align=center;verticalAlign=middle;whiteSpace=wrap;rounded=0;glass=1;" vertex="1" parent="Wl4oH_X68HvMIefPBBVF-16">
          <mxGeometry y="280" width="60" height="30" as="geometry" />
        </mxCell>
        <mxCell id="Wl4oH_X68HvMIefPBBVF-11" value="&lt;font style=&quot;font-size: 20px;&quot;&gt;$attrs: xxx,&lt;/font&gt;" style="text;html=1;strokeColor=none;fillColor=none;align=left;verticalAlign=middle;whiteSpace=wrap;rounded=0;glass=1;" vertex="1" parent="Wl4oH_X68HvMIefPBBVF-16">
          <mxGeometry x="55" y="65" width="140" height="30" as="geometry" />
        </mxCell>
        <mxCell id="Wl4oH_X68HvMIefPBBVF-12" value="&lt;font style=&quot;font-size: 20px;&quot;&gt;$children: xxx,&lt;/font&gt;" style="text;html=1;strokeColor=none;fillColor=none;align=left;verticalAlign=middle;whiteSpace=wrap;rounded=0;glass=1;" vertex="1" parent="Wl4oH_X68HvMIefPBBVF-16">
          <mxGeometry x="55" y="95" width="153" height="30" as="geometry" />
        </mxCell>
        <mxCell id="Wl4oH_X68HvMIefPBBVF-13" value="&lt;font style=&quot;font-size: 20px;&quot;&gt;......&lt;/font&gt;" style="text;html=1;strokeColor=none;fillColor=none;align=left;verticalAlign=middle;whiteSpace=wrap;rounded=0;glass=1;" vertex="1" parent="Wl4oH_X68HvMIefPBBVF-16">
          <mxGeometry x="55" y="125" width="153" height="30" as="geometry" />
        </mxCell>
        <mxCell id="Wl4oH_X68HvMIefPBBVF-14" value="" style="rounded=0;whiteSpace=wrap;html=1;strokeColor=default;fillColor=#B9E0A5;" vertex="1" parent="Wl4oH_X68HvMIefPBBVF-16">
          <mxGeometry x="43" y="170" width="280" height="110" as="geometry" />
        </mxCell>
        <mxCell id="Wl4oH_X68HvMIefPBBVF-15" value="&lt;font style=&quot;font-size: 20px;&quot;&gt;&lt;font style=&quot;&quot; color=&quot;#ff0000&quot;&gt;_data:&lt;/font&gt; {&lt;br&gt;&lt;span style=&quot;white-space: pre;&quot;&gt;	&lt;/span&gt;name: &#39;前端大学&#39;,&lt;br&gt;&lt;span style=&quot;white-space: pre;&quot;&gt;	&lt;/span&gt;address: &#39;中国&#39;&lt;br&gt;}&lt;/font&gt;" style="text;html=1;strokeColor=none;fillColor=none;align=left;verticalAlign=middle;whiteSpace=wrap;rounded=0;glass=1;" vertex="1" parent="Wl4oH_X68HvMIefPBBVF-16">
          <mxGeometry x="55" y="170" width="248" height="110" as="geometry" />
        </mxCell>
        <mxCell id="Wl4oH_X68HvMIefPBBVF-17" value="" style="shape=flexArrow;endArrow=classic;html=1;rounded=0;sketch=1;curveFitting=1;jiggle=2;shadow=0;endWidth=25;endSize=12.69;width=25;fillColor=default;" edge="1" parent="1">
          <mxGeometry width="50" height="50" relative="1" as="geometry">
            <mxPoint x="339" y="480" as="sourcePoint" />
            <mxPoint x="340" y="610" as="targetPoint" />
          </mxGeometry>
        </mxCell>
        <mxCell id="Wl4oH_X68HvMIefPBBVF-18" value="" style="group" vertex="1" connectable="0" parent="1">
          <mxGeometry x="157" y="594" width="363" height="320" as="geometry" />
        </mxCell>
        <mxCell id="Wl4oH_X68HvMIefPBBVF-19" value="" style="group;fillColor=none;container=0;" vertex="1" connectable="0" parent="Wl4oH_X68HvMIefPBBVF-18">
          <mxGeometry x="3" width="360" height="320" as="geometry" />
        </mxCell>
        <mxCell id="Wl4oH_X68HvMIefPBBVF-20" value="&lt;b&gt;&lt;font style=&quot;font-size: 20px;&quot;&gt;vm&lt;/font&gt;&lt;/b&gt;" style="rounded=0;whiteSpace=wrap;html=1;fillColor=#A6C4F6;strokeColor=none;" vertex="1" parent="Wl4oH_X68HvMIefPBBVF-18">
          <mxGeometry x="3" y="1" width="80" height="40" as="geometry" />
        </mxCell>
        <mxCell id="Wl4oH_X68HvMIefPBBVF-21" value="" style="rounded=0;whiteSpace=wrap;html=1;fillColor=#A6C4F6;strokeColor=none;" vertex="1" parent="Wl4oH_X68HvMIefPBBVF-18">
          <mxGeometry x="3" y="40" width="360" height="279" as="geometry" />
        </mxCell>
        <mxCell id="Wl4oH_X68HvMIefPBBVF-22" value="&lt;font style=&quot;font-size: 20px;&quot;&gt;{&lt;/font&gt;" style="text;html=1;strokeColor=none;fillColor=none;align=center;verticalAlign=middle;whiteSpace=wrap;rounded=0;glass=1;" vertex="1" parent="Wl4oH_X68HvMIefPBBVF-18">
          <mxGeometry y="41" width="60" height="30" as="geometry" />
        </mxCell>
        <mxCell id="Wl4oH_X68HvMIefPBBVF-23" value="&lt;font style=&quot;font-size: 20px;&quot;&gt;}&lt;/font&gt;" style="text;html=1;strokeColor=none;fillColor=none;align=center;verticalAlign=middle;whiteSpace=wrap;rounded=0;glass=1;" vertex="1" parent="Wl4oH_X68HvMIefPBBVF-18">
          <mxGeometry y="280" width="60" height="30" as="geometry" />
        </mxCell>
        <mxCell id="Wl4oH_X68HvMIefPBBVF-24" value="&lt;font style=&quot;font-size: 20px;&quot;&gt;$attrs: xxx,&lt;/font&gt;" style="text;html=1;strokeColor=none;fillColor=none;align=left;verticalAlign=middle;whiteSpace=wrap;rounded=0;glass=1;" vertex="1" parent="Wl4oH_X68HvMIefPBBVF-18">
          <mxGeometry x="55" y="65" width="140" height="30" as="geometry" />
        </mxCell>
        <mxCell id="Wl4oH_X68HvMIefPBBVF-25" value="&lt;font style=&quot;font-size: 20px;&quot;&gt;$children: xxx,&lt;/font&gt;" style="text;html=1;strokeColor=none;fillColor=none;align=left;verticalAlign=middle;whiteSpace=wrap;rounded=0;glass=1;" vertex="1" parent="Wl4oH_X68HvMIefPBBVF-18">
          <mxGeometry x="55" y="95" width="153" height="30" as="geometry" />
        </mxCell>
        <mxCell id="Wl4oH_X68HvMIefPBBVF-26" value="&lt;font style=&quot;font-size: 20px;&quot;&gt;......&lt;/font&gt;" style="text;html=1;strokeColor=none;fillColor=none;align=left;verticalAlign=middle;whiteSpace=wrap;rounded=0;glass=1;" vertex="1" parent="Wl4oH_X68HvMIefPBBVF-18">
          <mxGeometry x="55" y="125" width="153" height="30" as="geometry" />
        </mxCell>
        <mxCell id="Wl4oH_X68HvMIefPBBVF-27" value="" style="rounded=0;whiteSpace=wrap;html=1;strokeColor=default;fillColor=#B9E0A5;" vertex="1" parent="Wl4oH_X68HvMIefPBBVF-18">
          <mxGeometry x="43" y="170" width="280" height="110" as="geometry" />
        </mxCell>
        <mxCell id="Wl4oH_X68HvMIefPBBVF-28" value="&lt;font style=&quot;font-size: 20px;&quot;&gt;&lt;font style=&quot;&quot; color=&quot;#ff0000&quot;&gt;_data:&lt;/font&gt; {&lt;br&gt;&lt;span style=&quot;white-space: pre;&quot;&gt;	&lt;/span&gt;name: &#39;前端大学&#39;,&lt;br&gt;&lt;span style=&quot;white-space: pre;&quot;&gt;	&lt;/span&gt;address: &#39;中国&#39;&lt;br&gt;}&lt;/font&gt;" style="text;html=1;strokeColor=none;fillColor=none;align=left;verticalAlign=middle;whiteSpace=wrap;rounded=0;glass=1;" vertex="1" parent="Wl4oH_X68HvMIefPBBVF-18">
          <mxGeometry x="55" y="170" width="248" height="110" as="geometry" />
        </mxCell>
        <mxCell id="Wl4oH_X68HvMIefPBBVF-29" value="" style="group" vertex="1" connectable="0" parent="1">
          <mxGeometry x="670" y="465" width="363" height="450" as="geometry" />
        </mxCell>
        <mxCell id="Wl4oH_X68HvMIefPBBVF-30" value="" style="group;fillColor=none;container=0;" vertex="1" connectable="0" parent="Wl4oH_X68HvMIefPBBVF-29">
          <mxGeometry x="3" width="360" height="450" as="geometry" />
        </mxCell>
        <mxCell id="Wl4oH_X68HvMIefPBBVF-31" value="&lt;b&gt;&lt;font style=&quot;font-size: 20px;&quot;&gt;vm&lt;/font&gt;&lt;/b&gt;" style="rounded=0;whiteSpace=wrap;html=1;fillColor=#A6C4F6;strokeColor=none;" vertex="1" parent="Wl4oH_X68HvMIefPBBVF-29">
          <mxGeometry x="3" y="1.40625" width="80" height="56.25" as="geometry" />
        </mxCell>
        <mxCell id="Wl4oH_X68HvMIefPBBVF-32" value="" style="rounded=0;whiteSpace=wrap;html=1;fillColor=#A6C4F6;strokeColor=none;" vertex="1" parent="Wl4oH_X68HvMIefPBBVF-29">
          <mxGeometry x="3" y="56.25" width="360" height="392.34375" as="geometry" />
        </mxCell>
        <mxCell id="Wl4oH_X68HvMIefPBBVF-33" value="&lt;font style=&quot;font-size: 20px;&quot;&gt;{&lt;/font&gt;" style="text;html=1;strokeColor=none;fillColor=none;align=center;verticalAlign=middle;whiteSpace=wrap;rounded=0;glass=1;" vertex="1" parent="Wl4oH_X68HvMIefPBBVF-29">
          <mxGeometry y="57.65625" width="60" height="42.1875" as="geometry" />
        </mxCell>
        <mxCell id="Wl4oH_X68HvMIefPBBVF-34" value="&lt;font style=&quot;font-size: 20px;&quot;&gt;}&lt;/font&gt;" style="text;html=1;strokeColor=none;fillColor=none;align=center;verticalAlign=middle;whiteSpace=wrap;rounded=0;glass=1;" vertex="1" parent="Wl4oH_X68HvMIefPBBVF-29">
          <mxGeometry y="393.75" width="60" height="42.1875" as="geometry" />
        </mxCell>
        <mxCell id="Wl4oH_X68HvMIefPBBVF-35" value="&lt;font style=&quot;font-size: 20px;&quot;&gt;$attrs: xxx,&lt;/font&gt;" style="text;html=1;strokeColor=none;fillColor=none;align=left;verticalAlign=middle;whiteSpace=wrap;rounded=0;glass=1;" vertex="1" parent="Wl4oH_X68HvMIefPBBVF-29">
          <mxGeometry x="55" y="76.41" width="140" height="33.59" as="geometry" />
        </mxCell>
        <mxCell id="Wl4oH_X68HvMIefPBBVF-36" value="&lt;font style=&quot;font-size: 20px;&quot;&gt;$children: xxx,&lt;/font&gt;" style="text;html=1;strokeColor=none;fillColor=none;align=left;verticalAlign=middle;whiteSpace=wrap;rounded=0;glass=1;" vertex="1" parent="Wl4oH_X68HvMIefPBBVF-29">
          <mxGeometry x="55" y="104" width="153" height="30.41" as="geometry" />
        </mxCell>
        <mxCell id="Wl4oH_X68HvMIefPBBVF-37" value="&lt;font style=&quot;font-size: 20px;&quot;&gt;......&lt;/font&gt;" style="text;html=1;strokeColor=none;fillColor=none;align=left;verticalAlign=middle;whiteSpace=wrap;rounded=0;glass=1;" vertex="1" parent="Wl4oH_X68HvMIefPBBVF-29">
          <mxGeometry x="55" y="125" width="153" height="20" as="geometry" />
        </mxCell>
        <mxCell id="Wl4oH_X68HvMIefPBBVF-38" value="" style="rounded=0;whiteSpace=wrap;html=1;strokeColor=default;fillColor=#B9E0A5;" vertex="1" parent="Wl4oH_X68HvMIefPBBVF-29">
          <mxGeometry x="43" y="155.06" width="280" height="124.94" as="geometry" />
        </mxCell>
        <mxCell id="Wl4oH_X68HvMIefPBBVF-39" value="&lt;p style=&quot;line-height: 200%;&quot;&gt;&lt;font style=&quot;font-size: 20px;&quot;&gt;&lt;font style=&quot;&quot; color=&quot;#ff0000&quot;&gt;_data:&lt;/font&gt; {&lt;br&gt;&lt;span style=&quot;white-space: pre;&quot;&gt;	&lt;/span&gt;name: &#39;前端大学&#39;,&lt;br&gt;&lt;span style=&quot;white-space: pre;&quot;&gt;	&lt;/span&gt;address: &#39;中国&#39;&lt;br&gt;}&lt;/font&gt;&lt;/p&gt;" style="text;html=1;strokeColor=none;fillColor=none;align=left;verticalAlign=middle;whiteSpace=wrap;rounded=0;glass=1;" vertex="1" parent="Wl4oH_X68HvMIefPBBVF-29">
          <mxGeometry x="55" y="165.06" width="248" height="103.94" as="geometry" />
        </mxCell>
        <mxCell id="Wl4oH_X68HvMIefPBBVF-41" value="" style="rounded=0;whiteSpace=wrap;html=1;fillColor=none;strokeWidth=2;strokeColor=#FF8000;shadow=1;" vertex="1" parent="Wl4oH_X68HvMIefPBBVF-29">
          <mxGeometry x="160" y="193" width="100" height="22" as="geometry" />
        </mxCell>
        <mxCell id="Wl4oH_X68HvMIefPBBVF-43" value="&lt;b&gt;&lt;font color=&quot;#ff8000&quot; style=&quot;font-size: 20px; background-color: rgb(230, 230, 230);&quot;&gt;name:&amp;nbsp;&lt;/font&gt;&lt;/b&gt;" style="text;html=1;strokeColor=none;fillColor=none;align=left;verticalAlign=middle;whiteSpace=wrap;rounded=0;shadow=1;" vertex="1" parent="Wl4oH_X68HvMIefPBBVF-29">
          <mxGeometry x="43" y="305" width="60" height="30" as="geometry" />
        </mxCell>
        <mxCell id="Wl4oH_X68HvMIefPBBVF-45" value="" style="endArrow=classic;startArrow=classic;html=1;rounded=0;exitX=1;exitY=0.5;exitDx=0;exitDy=0;entryX=1;entryY=0.5;entryDx=0;entryDy=0;edgeStyle=orthogonalEdgeStyle;strokeWidth=2;strokeColor=#FF8000;shadow=1;" edge="1" parent="Wl4oH_X68HvMIefPBBVF-29" source="Wl4oH_X68HvMIefPBBVF-43" target="Wl4oH_X68HvMIefPBBVF-41">
          <mxGeometry width="50" height="50" relative="1" as="geometry">
            <mxPoint x="-30" y="245" as="sourcePoint" />
            <mxPoint x="20" y="195" as="targetPoint" />
            <Array as="points">
              <mxPoint x="310" y="320" />
              <mxPoint x="310" y="204" />
            </Array>
          </mxGeometry>
        </mxCell>
        <mxCell id="Wl4oH_X68HvMIefPBBVF-47" value="&lt;b&gt;&lt;font color=&quot;#a680b8&quot; style=&quot;font-size: 20px; background-color: rgb(230, 230, 230);&quot;&gt;address:&amp;nbsp;&lt;/font&gt;&lt;/b&gt;" style="text;html=1;strokeColor=none;fillColor=none;align=left;verticalAlign=middle;whiteSpace=wrap;rounded=0;shadow=1;" vertex="1" parent="Wl4oH_X68HvMIefPBBVF-29">
          <mxGeometry x="43" y="355" width="107" height="30" as="geometry" />
        </mxCell>
        <mxCell id="Wl4oH_X68HvMIefPBBVF-42" value="" style="rounded=0;whiteSpace=wrap;html=1;fillColor=none;strokeWidth=2;strokeColor=#A680B8;shadow=1;" vertex="1" parent="1">
          <mxGeometry x="848" y="684" width="60" height="22" as="geometry" />
        </mxCell>
        <mxCell id="Wl4oH_X68HvMIefPBBVF-48" value="" style="endArrow=classic;startArrow=classic;html=1;rounded=0;exitX=1;exitY=0.5;exitDx=0;exitDy=0;entryX=1;entryY=0.5;entryDx=0;entryDy=0;edgeStyle=orthogonalEdgeStyle;strokeWidth=2;strokeColor=#A680B8;shadow=1;" edge="1" parent="1" target="Wl4oH_X68HvMIefPBBVF-42">
          <mxGeometry width="50" height="50" relative="1" as="geometry">
            <mxPoint x="803" y="836" as="sourcePoint" />
            <mxPoint x="960" y="720" as="targetPoint" />
            <Array as="points">
              <mxPoint x="930" y="836" />
              <mxPoint x="930" y="695" />
            </Array>
          </mxGeometry>
        </mxCell>
        <mxCell id="Wl4oH_X68HvMIefPBBVF-49" value="" style="shape=flexArrow;endArrow=classic;html=1;rounded=0;sketch=1;curveFitting=1;jiggle=2;shadow=0;endWidth=25;endSize=12.69;width=25;fillColor=default;" edge="1" parent="1">
          <mxGeometry width="50" height="50" relative="1" as="geometry">
            <mxPoint x="540" y="780" as="sourcePoint" />
            <mxPoint x="660" y="780" as="targetPoint" />
          </mxGeometry>
        </mxCell>
        <mxCell id="Wl4oH_X68HvMIefPBBVF-50" value="&lt;p style=&quot;line-height: 200%;&quot;&gt;&lt;b&gt;&lt;font style=&quot;font-size: 26px;&quot;&gt;&lt;font color=&quot;#ff8000&quot;&gt;Object&amp;nbsp;&lt;/font&gt;.&amp;nbsp;&lt;font color=&quot;#5c86cf&quot;&gt;defineProperty&lt;/font&gt;&lt;/font&gt;&lt;/b&gt;&lt;/p&gt;" style="text;html=1;strokeColor=none;fillColor=none;align=center;verticalAlign=middle;whiteSpace=wrap;rounded=0;shadow=1;" vertex="1" parent="1">
          <mxGeometry x="1060" y="673" width="310" height="47" as="geometry" />
        </mxCell>
      </root>
    </mxGraphModel>
  </diagram>
</mxfile>
